<svg width="368" height="297" viewBox="0 0 368 297" fill="none" xmlns="http://www.w3.org/2000/svg">
<g clip-path="url(#clip0_3158_229697)">
<path d="M66.3049 195.694C65.9814 195.693 65.6599 195.643 65.352 195.544C64.9623 195.42 64.6008 195.22 64.2887 194.956C63.9765 194.691 63.7197 194.368 63.5333 194.003L60.5269 188.157C60.1497 187.422 60.0788 186.567 60.33 185.779C60.5812 184.991 61.1338 184.335 61.8666 183.956L110.467 158.836C111.2 158.458 112.054 158.387 112.84 158.638C113.625 158.89 114.279 159.444 114.658 160.179L117.665 166.025C118.042 166.76 118.113 167.615 117.861 168.403C117.61 169.191 117.058 169.847 116.325 170.226L67.7247 195.346C67.2859 195.574 66.799 195.693 66.3049 195.694Z" fill="#0067FF"/>
<path d="M83.9346 172.918C84.0648 173.098 84.1755 173.291 84.2649 173.495L89.4005 184.738C89.566 185.113 89.6562 185.517 89.666 185.926C89.6757 186.336 89.6048 186.744 89.4573 187.126C89.3098 187.508 89.0886 187.858 88.8063 188.154C88.524 188.451 88.1862 188.689 87.8122 188.854L70.5395 194.906C68.743 195.535 66.7789 195.481 65.0194 194.755C63.2599 194.029 61.8274 192.681 60.9932 190.966C60.1201 189.172 59.9679 187.11 60.568 185.207C61.168 183.303 62.4745 181.704 64.2175 180.739L80.1443 171.91C80.7957 171.618 81.5275 171.558 82.2174 171.742C82.9073 171.925 83.5134 172.34 83.9346 172.918Z" fill="#2F2E41"/>
<path d="M287.324 143.487H204.118C202.224 143.481 200.396 142.789 198.972 141.538L164.7 111.236C163.523 110.194 162.007 109.619 160.437 109.62H130.86V7.35259C130.863 5.40324 131.636 3.53436 133.011 2.15596C134.386 0.777555 136.25 0.00220316 138.195 0H279.989C281.934 0.00220199 283.798 0.777555 285.173 2.15596C286.548 3.53436 287.322 5.40324 287.324 7.35259L287.324 143.487Z" fill="#E6E6E6"/>
<path d="M164.865 47.4574C173.457 47.4574 180.422 40.4747 180.422 31.861C180.422 23.2474 173.457 16.2646 164.865 16.2646C156.272 16.2646 149.307 23.2474 149.307 31.861C149.307 40.4747 156.272 47.4574 164.865 47.4574Z" fill="white"/>
<path d="M225.316 23.5059H196.424C195.893 23.5059 195.384 23.7171 195.009 24.0932C194.634 24.4692 194.423 24.9793 194.423 25.5111C194.423 26.0429 194.634 26.553 195.009 26.929C195.384 27.3051 195.893 27.5164 196.424 27.5164H225.316C225.846 27.5164 226.355 27.3051 226.73 26.929C227.105 26.553 227.316 26.0429 227.316 25.5111C227.316 24.9793 227.105 24.4692 226.73 24.0932C226.355 23.7171 225.846 23.5059 225.316 23.5059Z" fill="white"/>
<path d="M267.259 36.2061H196.041C195.148 36.2061 194.423 37.1062 194.423 38.2113C194.423 39.3164 195.148 40.2166 196.041 40.2166H267.259C268.152 40.2166 268.877 39.3164 268.877 38.2113C268.877 37.1062 268.152 36.2061 267.259 36.2061Z" fill="white"/>
<path d="M261.663 63.0542H156.521C155.668 63.0542 154.974 63.9543 154.974 65.0595C154.974 66.1646 155.668 67.0647 156.521 67.0647H261.663C262.516 67.0647 263.209 66.1646 263.209 65.0595C263.209 63.9543 262.516 63.0542 261.663 63.0542Z" fill="white"/>
<path d="M261.663 75.5312H156.521C155.668 75.5312 154.974 76.4314 154.974 77.5365C154.974 78.6416 155.668 79.5418 156.521 79.5418H261.663C262.516 79.5418 263.209 78.6416 263.209 77.5365C263.209 76.4314 262.516 75.5312 261.663 75.5312Z" fill="white"/>
<path d="M261.663 88.0083H156.521C155.668 88.0083 154.974 88.9084 154.974 90.0136C154.974 91.1187 155.668 92.0188 156.521 92.0188H261.663C262.516 92.0188 263.209 91.1187 263.209 90.0136C263.209 88.9084 262.516 88.0083 261.663 88.0083Z" fill="white"/>
<path d="M261.663 100.485H156.521C155.668 100.485 154.974 101.385 154.974 102.491C154.974 103.596 155.668 104.496 156.521 104.496H261.663C262.516 104.496 263.209 103.596 263.209 102.491C263.209 101.385 262.516 100.485 261.663 100.485Z" fill="white"/>
<path d="M356.221 143.487H204.118C202.604 143.489 201.122 143.046 199.857 142.211L199.757 142.145V38.0997C199.76 36.1503 200.533 34.2814 201.908 32.903C203.283 31.5246 205.147 30.7493 207.092 30.7471H348.886C350.831 30.7493 352.695 31.5246 354.07 32.903C355.445 34.2814 356.218 36.1503 356.221 38.0997L356.221 143.487Z" fill="#0067FF"/>
<path d="M233.762 78.205C242.354 78.205 249.319 71.2223 249.319 62.6086C249.319 53.995 242.354 47.0122 233.762 47.0122C225.169 47.0122 218.204 53.995 218.204 62.6086C218.204 71.2223 225.169 78.205 233.762 78.205Z" fill="white"/>
<path d="M294.213 54.2534H265.321C264.791 54.2534 264.282 54.4647 263.907 54.8407C263.532 55.2168 263.321 55.7268 263.321 56.2587C263.321 56.7905 263.532 57.3005 263.907 57.6766C264.282 58.0527 264.791 58.2639 265.321 58.2639H294.213C294.744 58.2639 295.253 58.0527 295.628 57.6766C296.003 57.3005 296.214 56.7905 296.214 56.2587C296.214 55.7268 296.003 55.2168 295.628 54.8407C295.253 54.4647 294.744 54.2534 294.213 54.2534Z" fill="white"/>
<path d="M336.156 66.9531H264.939C264.045 66.9531 263.321 67.8533 263.321 68.9584C263.321 70.0635 264.045 70.9636 264.939 70.9636H336.156C337.05 70.9636 337.774 70.0635 337.774 68.9584C337.774 67.8533 337.05 66.9531 336.156 66.9531Z" fill="white"/>
<path d="M330.56 93.8013H225.418C224.565 93.8013 223.872 94.7014 223.872 95.8065C223.872 96.9116 224.565 97.8118 225.418 97.8118H330.56C331.413 97.8118 332.107 96.9116 332.107 95.8065C332.107 94.7014 331.413 93.8013 330.56 93.8013Z" fill="white"/>
<path d="M330.56 106.278H225.418C224.565 106.278 223.872 107.178 223.872 108.284C223.872 109.389 224.565 110.289 225.418 110.289H330.56C331.413 110.289 332.107 109.389 332.107 108.284C332.107 107.178 331.413 106.278 330.56 106.278Z" fill="white"/>
<path d="M330.56 118.755H225.418C224.565 118.755 223.872 119.656 223.872 120.761C223.872 121.866 224.565 122.766 225.418 122.766H330.56C331.413 122.766 332.107 121.866 332.107 120.761C332.107 119.656 331.413 118.755 330.56 118.755Z" fill="white"/>
<path d="M330.56 131.232H225.418C224.565 131.232 223.872 132.133 223.872 133.238C223.872 134.343 224.565 135.243 225.418 135.243H330.56C331.413 135.243 332.107 134.343 332.107 133.238C332.107 132.133 331.413 131.232 330.56 131.232Z" fill="white"/>
<path d="M360.444 142.373H204.118C202.616 142.375 201.157 141.866 199.98 140.929C199.887 140.858 199.798 140.782 199.709 140.702L186.476 129.004L165.434 110.4C164.054 109.179 162.277 108.506 160.437 108.506H122.193C120.189 108.509 118.269 109.308 116.853 110.728C115.436 112.148 114.639 114.073 114.636 116.082V289.425C114.639 291.433 115.436 293.358 116.853 294.778C118.269 296.198 120.189 296.997 122.193 297H360.444C362.447 296.997 364.367 296.198 365.784 294.778C367.2 293.358 367.997 291.433 368 289.425V149.948C367.997 147.94 367.2 146.015 365.784 144.595C364.367 143.175 362.447 142.376 360.444 142.373ZM367.111 289.425C367.109 291.197 366.406 292.896 365.156 294.149C363.906 295.402 362.211 296.107 360.444 296.109H122.193C120.425 296.107 118.73 295.402 117.48 294.149C116.231 292.896 115.527 291.197 115.525 289.425V116.082C115.527 114.31 116.231 112.611 117.48 111.358C118.73 110.105 120.425 109.4 122.193 109.398H160.437C162.061 109.396 163.63 109.991 164.847 111.069L185.134 129.004L199.118 141.37C200.502 142.586 202.278 143.259 204.118 143.264H360.444C362.211 143.266 363.906 143.971 365.156 145.224C366.406 146.477 367.109 148.176 367.111 149.948V289.425Z" fill="#3F3D56"/>
<path d="M45.8961 169.15C59.0345 169.15 69.6853 158.473 69.6853 145.301C69.6853 132.13 59.0345 121.453 45.8961 121.453C32.7577 121.453 22.1069 132.13 22.1069 145.301C22.1069 158.473 32.7577 169.15 45.8961 169.15Z" fill="#0067FF"/>
<path d="M45.7037 296.74H39.1432C38.3183 296.74 37.5274 296.411 36.9441 295.826C36.3608 295.241 36.0327 294.448 36.0317 293.621V238.805C36.0327 237.978 36.3608 237.185 36.9441 236.6C37.5274 236.015 38.3183 235.686 39.1432 235.686H45.7037C46.5286 235.686 47.3195 236.015 47.9028 236.6C48.4862 237.185 48.8143 237.978 48.8152 238.805V293.621C48.8143 294.448 48.4862 295.241 47.9028 295.826C47.3195 296.411 46.5286 296.74 45.7037 296.74Z" fill="#0067FF"/>
<path d="M59.9278 296.74H53.3673C52.5424 296.74 51.7515 296.411 51.1682 295.826C50.5849 295.241 50.2568 294.448 50.2559 293.621V238.805C50.2568 237.978 50.5849 237.185 51.1682 236.6C51.7515 236.015 52.5424 235.686 53.3673 235.686H59.9278C60.7528 235.686 61.5436 236.015 62.127 236.6C62.7103 237.185 63.0384 237.978 63.0393 238.805V293.621C63.0384 294.448 62.7103 295.241 62.127 295.826C61.5436 296.411 60.7528 296.74 59.9278 296.74Z" fill="#0067FF"/>
<path d="M83.7512 226.669C83.7512 246.111 65.5084 252.382 46.1148 252.382C26.7211 252.382 13.5205 246.111 13.5205 226.669C13.5205 207.226 26.5752 174.086 45.9689 174.086C65.3626 174.086 83.7512 207.226 83.7512 226.669Z" fill="#2F2E41"/>
<path d="M45.3963 154.14L45.3716 153.249C47.0254 153.203 48.4835 153.099 49.5791 152.297C49.8897 152.056 50.145 151.752 50.3277 151.403C50.5103 151.055 50.616 150.672 50.6376 150.279C50.6569 150.039 50.6207 149.797 50.5318 149.574C50.4429 149.35 50.3038 149.15 50.1252 148.989C49.3979 148.373 48.2276 148.572 47.3746 148.965L46.6391 149.303L48.0496 138.969L48.9304 139.09L47.7306 147.88C48.8896 147.539 49.9635 147.686 50.699 148.308C50.9815 148.555 51.2031 148.865 51.3465 149.212C51.49 149.559 51.5514 149.935 51.526 150.31C51.5 150.838 51.3592 151.354 51.1135 151.821C50.8678 152.289 50.5231 152.697 50.1035 153.016C48.6958 154.048 46.8663 154.099 45.3963 154.14Z" fill="#2F2E41"/>
<path d="M58.074 139.848H53.2861V140.739H58.074V139.848Z" fill="#2F2E41"/>
<path d="M42.9612 139.848H38.1733V140.739H42.9612V139.848Z" fill="#2F2E41"/>
<path d="M310.215 266.253H179.533C177.765 266.251 176.07 265.546 174.82 264.293C173.57 263.04 172.867 261.341 172.865 259.569V187.379C172.867 185.607 173.57 183.908 174.82 182.655C176.07 181.402 177.765 180.697 179.533 180.695H310.215C311.983 180.697 313.678 181.402 314.928 182.655C316.178 183.908 316.881 185.607 316.883 187.379V259.569C316.881 261.341 316.178 263.04 314.928 264.293C313.678 265.546 311.983 266.251 310.215 266.253ZM179.533 181.587C178.001 181.588 176.532 182.199 175.449 183.285C174.365 184.371 173.756 185.844 173.754 187.379V259.569C173.756 261.104 174.365 262.577 175.449 263.663C176.532 264.749 178.001 265.36 179.533 265.361H310.215C311.747 265.36 313.216 264.749 314.299 263.663C315.383 262.577 315.992 261.104 315.994 259.569V187.379C315.992 185.844 315.383 184.371 314.299 183.285C313.216 182.199 311.747 181.588 310.215 181.587H179.533Z" fill="#E6E6E6"/>
<path d="M200.646 223.029C209.238 223.029 216.204 216.046 216.204 207.432C216.204 198.819 209.238 191.836 200.646 191.836C192.054 191.836 185.089 198.819 185.089 207.432C185.089 216.046 192.054 223.029 200.646 223.029Z" fill="#E6E6E6"/>
<path d="M261.098 199.077H232.206C231.675 199.077 231.167 199.288 230.791 199.664C230.416 200.04 230.206 200.55 230.206 201.082C230.206 201.614 230.416 202.124 230.791 202.5C231.167 202.876 231.675 203.087 232.206 203.087H261.098C261.629 203.087 262.137 202.876 262.513 202.5C262.888 202.124 263.098 201.614 263.098 201.082C263.098 200.55 262.888 200.04 262.513 199.664C262.137 199.288 261.629 199.077 261.098 199.077Z" fill="#E6E6E6"/>
<path d="M303.041 211.777H231.824C230.93 211.777 230.206 212.677 230.206 213.782C230.206 214.887 230.93 215.787 231.824 215.787H303.041C303.935 215.787 304.659 214.887 304.659 213.782C304.659 212.677 303.935 211.777 303.041 211.777Z" fill="#E6E6E6"/>
<path d="M297.445 238.625H192.303C191.45 238.625 190.756 239.525 190.756 240.63C190.756 241.735 191.45 242.636 192.303 242.636H297.445C298.298 242.636 298.992 241.735 298.992 240.63C298.992 239.525 298.298 238.625 297.445 238.625Z" fill="#E6E6E6"/>
<path d="M297.445 251.102H192.303C191.45 251.102 190.756 252.002 190.756 253.107C190.756 254.212 191.45 255.113 192.303 255.113H297.445C298.298 255.113 298.992 254.212 298.992 253.107C298.992 252.002 298.298 251.102 297.445 251.102Z" fill="#E6E6E6"/>
<path d="M26.9103 138.749C28.7605 135.957 32.016 134.774 35.2262 134.486C38.8396 134.162 42.3311 134.86 45.859 135.539C49.7416 136.286 53.8508 136.984 57.763 136.04C59.4937 135.639 61.1109 134.849 62.4928 133.73C63.8746 132.611 64.9849 131.192 65.7401 129.58C67.1725 126.435 67.4811 122.892 66.6141 119.545C65.6973 115.987 63.4218 112.855 60.6632 110.49C55.0328 105.663 47.4136 103.493 40.0851 103.698C32.7845 103.887 25.7282 106.374 19.9162 110.807C14.0945 115.401 9.99783 121.837 8.29484 129.065C6.51405 136.233 7.09417 143.787 9.94853 150.598C11.5522 154.328 13.8715 157.69 15.6612 161.326C17.3275 164.711 18.6108 168.646 17.574 172.422C16.6643 175.735 13.9933 178.678 10.6401 179.578C7.44629 180.434 4.29279 179.03 2.54281 176.264C0.866555 173.614 0.826448 170.143 3.34325 168.004C3.97781 167.455 4.71699 167.042 5.51586 166.789C6.31472 166.536 7.15656 166.449 7.99019 166.532C8.82383 166.615 9.63183 166.868 10.3651 167.274C11.0983 167.68 11.7415 168.232 12.2554 168.895C13.2765 170.225 13.7335 171.904 13.5275 173.569C13.4035 174.411 14.6882 174.774 14.8133 173.925C15.1137 172.164 14.7806 170.353 13.8735 168.815C12.9665 167.277 11.5442 166.112 9.86029 165.528C8.17635 164.943 6.34005 164.977 4.67858 165.623C3.0171 166.269 1.63837 167.485 0.78803 169.055C-0.729731 171.916 0.089187 175.367 2.01585 177.812C3.0099 179.115 4.35724 180.102 5.89666 180.657C7.43608 181.212 9.10239 181.311 10.6962 180.941C14.2033 180.129 17.0722 177.335 18.4214 174.051C19.9235 170.396 19.2353 166.316 17.771 162.769C16.1882 158.934 13.8377 155.495 11.9789 151.8C10.2959 148.46 9.22487 144.845 8.81693 141.126C8.00049 133.658 9.69123 126.13 13.6217 119.733C17.6278 113.436 23.7426 108.777 30.8675 106.594C37.893 104.383 45.6414 104.451 52.5202 107.168C59.296 109.844 65.8389 115.677 65.7603 123.511C65.7267 126.857 64.4876 130.269 61.9308 132.501C58.8753 135.169 54.6208 135.397 50.7798 134.981C46.9143 134.562 43.1607 133.43 39.2786 133.141C35.902 132.89 32.2591 133.151 29.2442 134.833C27.8402 135.618 26.6449 136.73 25.7589 138.074C25.2827 138.793 26.4371 139.463 26.9103 138.749Z" fill="#2F2E41"/>
<path d="M20.057 250.526C19.8997 250.526 19.7426 250.514 19.5871 250.49L13.1013 249.5C12.2859 249.375 11.5534 248.93 11.0645 248.264C10.5756 247.598 10.3702 246.765 10.4935 245.947L18.7213 191.755C18.8464 190.938 19.2897 190.203 19.9542 189.713C20.6186 189.223 21.4499 189.017 22.2655 189.14L28.7514 190.13C29.5668 190.256 30.2993 190.7 30.7882 191.366C31.2771 192.032 31.4824 192.865 31.3592 193.683L23.1313 247.875C23.0184 248.612 22.6465 249.284 22.0828 249.77C21.519 250.256 20.8005 250.524 20.057 250.526Z" fill="#0067FF"/>
<path d="M27.8076 213.593C27.5858 213.593 27.3647 213.569 27.1479 213.522L15.0553 211.083C14.6556 210.997 14.2766 210.833 13.9401 210.6C13.6036 210.367 13.3162 210.07 13.0943 209.726C12.8724 209.382 12.7204 208.997 12.6469 208.594C12.5734 208.191 12.5799 207.777 12.666 207.376L17.9287 189.808C18.4766 187.981 19.6741 186.42 21.294 185.419C22.9139 184.418 24.8437 184.048 26.7177 184.379C28.6788 184.724 30.4326 185.812 31.6165 187.417C32.8004 189.022 33.324 191.022 33.0791 193.003L30.848 211.111C30.7014 211.811 30.3195 212.439 29.7661 212.891C29.2127 213.343 28.5213 213.591 27.8076 213.593Z" fill="#2F2E41"/>
<path d="M85.28 297H15.4938C15.3759 297 15.2629 296.953 15.1795 296.87C15.0961 296.786 15.0493 296.673 15.0493 296.554C15.0493 296.436 15.0961 296.323 15.1795 296.239C15.2629 296.156 15.3759 296.109 15.4938 296.109H85.28C85.3979 296.109 85.511 296.156 85.5943 296.239C85.6777 296.323 85.7245 296.436 85.7245 296.554C85.7245 296.673 85.6777 296.786 85.5943 296.87C85.511 296.953 85.3979 297 85.28 297Z" fill="#3F3D56"/>
</g>
<defs>
<clipPath id="clip0_3158_229697">
<rect width="368" height="297" fill="white"/>
</clipPath>
</defs>
</svg>
