<svg width="404" height="219" viewBox="0 0 404 219" fill="none" xmlns="http://www.w3.org/2000/svg">
<g clip-path="url(#clip0_3158_230298)">
<path d="M219.231 115.85V116.325C219.23 120.693 217.496 124.882 214.411 127.97C211.325 131.057 207.141 132.792 202.778 132.791H17.0739C12.7119 132.791 8.52864 131.056 5.44425 127.968C2.35985 124.88 0.62688 120.692 0.626465 116.325V115.85H219.231Z" fill="#F2F2F2"/>
<path d="M39.4668 37.4644C26.0467 40.7828 13.9995 30.4464 11.896 20.8572L12.8303 20.69C24.1416 18.1869 36.7682 26.2815 39.4668 37.4644Z" fill="#0067FF"/>
<path d="M363.855 215.049C359.974 213.372 359.092 207.259 362.34 204.55C365.589 201.842 371.435 203.816 372.381 207.941L368.76 182.012C367.927 176.051 367.261 169.387 370.86 164.565C374.23 160.05 380.813 158.603 386.097 160.547C391.382 162.491 395.288 167.339 396.945 172.726C398.602 178.113 398.211 183.967 396.764 189.414C395.317 194.861 392.859 199.978 390.373 205.035C387.825 210.217 384.735 215.833 379.29 217.74C374.088 219.562 363.855 215.049 363.855 215.049Z" fill="#F2F2F2"/>
<path d="M380.864 160.055C383.243 167.489 384.376 175.266 384.216 183.071C384.066 190.841 382.672 198.537 380.086 205.864C378.615 210.022 376.75 214.029 374.517 217.831C374.421 218.01 374.398 218.219 374.452 218.415C374.507 218.611 374.636 218.778 374.811 218.881C374.987 218.983 375.195 219.014 375.393 218.965C375.59 218.917 375.761 218.794 375.869 218.622C379.878 211.765 382.726 204.292 384.298 196.505C385.894 188.681 386.214 180.65 385.244 172.723C384.699 168.281 383.738 163.9 382.374 159.638C382.066 158.682 380.554 159.091 380.864 160.055Z" fill="white"/>
<path d="M361.554 205.505L373.947 218.544C374.643 219.276 375.75 218.166 375.055 217.435L362.661 204.396C361.965 203.664 360.859 204.774 361.554 205.505Z" fill="white"/>
<path d="M351.025 156.273C350.584 156.274 350.157 156.115 349.823 155.826C342.17 150.837 335.359 144.662 329.643 137.531C329.293 137.199 329.087 136.743 329.069 136.261C329.051 135.779 329.222 135.308 329.545 134.951L333.302 130.797L334.076 131.499L330.319 135.652C330.177 135.81 330.102 136.018 330.113 136.231C330.123 136.443 330.218 136.643 330.375 136.786L330.43 136.844C336.089 143.911 342.837 150.029 350.421 154.968L350.489 155.02C350.647 155.163 350.855 155.237 351.067 155.227C351.279 155.216 351.479 155.122 351.622 154.964L358.951 146.86C359.088 146.709 359.162 146.512 359.159 146.309C359.156 146.106 359.076 145.911 358.935 145.765C357.236 144.838 355.579 143.828 354.008 142.762L354.593 141.897C356.156 142.957 357.805 143.961 359.495 144.88L359.596 144.952C359.776 145.115 359.922 145.311 360.025 145.531C360.129 145.75 360.189 145.988 360.201 146.23C360.213 146.472 360.177 146.715 360.095 146.943C360.014 147.172 359.888 147.382 359.725 147.562L352.395 155.666C352.233 155.846 352.037 155.992 351.818 156.096C351.598 156.2 351.361 156.259 351.119 156.271C351.088 156.272 351.056 156.273 351.025 156.273Z" fill="#3F3D56"/>
<path d="M342.945 142.631C345.247 144.716 347.611 145.86 348.227 145.181C348.308 145.066 348.358 144.932 348.374 144.793C348.391 144.653 348.372 144.512 348.321 144.381C348.071 143.612 347.672 142.9 347.147 142.286C345.101 140.828 343.112 139.255 341.181 137.567C340.575 137.368 340.11 137.374 339.886 137.624C339.854 137.66 339.828 137.701 339.808 137.745C339.421 138.534 340.763 140.65 342.945 142.631Z" fill="#0067FF"/>
<path d="M329.07 125.83C329.09 126.306 329.296 126.754 329.645 127.079C332.737 130.905 336.136 134.472 339.808 137.744C342.494 140.144 345.339 142.361 348.321 144.381C348.817 144.721 349.318 145.05 349.824 145.374C350.156 145.665 350.583 145.825 351.025 145.823C351.056 145.823 351.087 145.818 351.119 145.818C351.361 145.807 351.599 145.747 351.819 145.643C352.038 145.539 352.235 145.393 352.397 145.212L359.726 137.112C360.055 136.748 360.226 136.269 360.201 135.779C360.177 135.289 359.959 134.828 359.596 134.499L359.496 134.426C351.495 130.1 344.657 123.902 339.562 116.361L339.484 116.267C339.12 115.938 338.641 115.767 338.152 115.791C337.662 115.816 337.203 116.034 336.874 116.397L329.545 124.497C329.382 124.677 329.256 124.887 329.175 125.116C329.093 125.345 329.058 125.587 329.07 125.83ZM330.114 125.778C330.109 125.673 330.124 125.569 330.159 125.47C330.194 125.371 330.248 125.28 330.318 125.203L337.646 117.098C337.717 117.019 337.803 116.956 337.899 116.911C337.995 116.866 338.099 116.841 338.205 116.836C338.397 116.825 338.586 116.884 338.737 117.004C343.907 124.638 350.833 130.918 358.933 135.314C359.074 135.46 359.154 135.654 359.158 135.856C359.162 136.059 359.089 136.256 358.953 136.407L351.62 144.512C351.55 144.591 351.465 144.654 351.37 144.699C351.275 144.744 351.172 144.769 351.066 144.773C350.854 144.783 350.646 144.71 350.487 144.569L350.419 144.517C349.313 143.806 348.222 143.062 347.146 142.286C345.1 140.828 343.111 139.255 341.18 137.567C337.28 134.161 333.682 130.423 330.427 126.394L330.375 126.337C330.219 126.192 330.125 125.991 330.114 125.778Z" fill="#3F3D56"/>
<path d="M348.227 134.731C348.84 134.053 347.47 131.811 345.167 129.723C342.864 127.635 340.5 126.492 339.887 127.171C339.274 127.849 340.643 130.091 342.946 132.179C345.249 134.266 347.613 135.409 348.227 134.731Z" fill="#0067FF"/>
<path d="M302.175 212.45L295.776 212.449L292.731 187.738L302.176 187.739L302.175 212.45Z" fill="#FFB8B8"/>
<path d="M303.807 218.66L283.173 218.659V218.398C283.173 217.342 283.381 216.297 283.784 215.321C284.188 214.346 284.779 213.459 285.525 212.713C286.271 211.966 287.156 211.374 288.131 210.97C289.105 210.566 290.15 210.358 291.204 210.358H291.205L303.807 210.358L303.807 218.66Z" fill="#2F2E41"/>
<path d="M320.966 212.45L314.567 212.449L311.522 187.738L320.967 187.739L320.966 212.45Z" fill="#FFB8B8"/>
<path d="M322.598 218.66L301.964 218.659V218.398C301.964 217.342 302.172 216.297 302.576 215.321C302.979 214.346 303.571 213.459 304.317 212.713C305.062 211.966 305.948 211.374 306.922 210.97C307.897 210.566 308.941 210.358 309.996 210.358H309.996L322.599 210.358L322.598 218.66Z" fill="#2F2E41"/>
<path d="M325.261 112.583L323.733 203.35C323.728 203.637 323.664 203.921 323.545 204.182C323.426 204.444 323.254 204.678 323.04 204.87C322.827 205.062 322.576 205.208 322.303 205.299C322.031 205.389 321.742 205.422 321.456 205.396L313.968 204.715C313.477 204.67 313.017 204.453 312.671 204.101C312.324 203.75 312.113 203.287 312.075 202.795L307.691 146.177C307.681 146.044 307.62 145.92 307.522 145.83C307.423 145.741 307.294 145.692 307.161 145.695C307.027 145.698 306.9 145.751 306.805 145.845C306.71 145.938 306.654 146.064 306.649 146.198L304.458 204.112C304.438 204.652 304.209 205.163 303.82 205.538C303.431 205.913 302.912 206.123 302.372 206.123H294.341C293.809 206.123 293.297 205.92 292.91 205.555C292.523 205.19 292.289 204.691 292.257 204.16L286.635 112.061L320.041 103.699L325.261 112.583Z" fill="#2F2E41"/>
<path d="M301.03 27.3542C308.111 27.3542 313.851 21.6078 313.851 14.5194C313.851 7.43091 308.111 1.68457 301.03 1.68457C293.95 1.68457 288.21 7.43091 288.21 14.5194C288.21 21.6078 293.95 27.3542 301.03 27.3542Z" fill="#FFB8B8"/>
<path d="M285.491 115.283C285.269 115.068 285.091 114.812 284.969 114.528C284.847 114.244 284.782 113.938 284.778 113.629L283.914 51.735C283.862 48.5865 284.808 45.5025 286.616 42.926C288.424 40.3496 291.002 38.4132 293.978 37.3951C295.18 31.9397 301.572 31.2564 305.299 31.3381C306.229 31.3581 307.14 31.6024 307.956 32.0502C308.772 32.498 309.468 33.1362 309.985 33.9106L312.656 37.9222L318.544 41.3776C321.269 42.9699 323.419 45.3875 324.682 48.2818C325.946 51.1761 326.259 54.3975 325.575 57.4813L324.669 61.6092C321.477 76.2199 321.781 91.3791 325.555 105.85L327.379 112.813C327.474 113.175 327.481 113.555 327.4 113.921C327.318 114.287 327.15 114.628 326.911 114.916C326.671 115.204 326.365 115.43 326.02 115.576C325.675 115.722 325.3 115.783 324.927 115.754L322.809 115.59C322.259 115.549 321.741 115.314 321.346 114.928C320.952 114.542 320.706 114.03 320.651 113.48L320.301 109.97C320.294 109.906 320.264 109.846 320.216 109.803C320.168 109.759 320.106 109.735 320.041 109.735C319.976 109.735 319.914 109.759 319.866 109.803C319.818 109.846 319.788 109.906 319.781 109.97L319.442 113.368C319.385 113.943 319.119 114.476 318.694 114.866C318.27 115.256 317.717 115.477 317.141 115.486L287.163 115.948C287.151 115.948 287.138 115.948 287.126 115.948C286.515 115.949 285.928 115.711 285.491 115.283Z" fill="#3F3D56"/>
<path d="M302.033 21.9176C302.086 23.732 303.344 24.7816 304.889 25.732C306.433 26.6823 308.239 27.0944 310.008 27.4919C310.246 27.6182 310.512 27.6811 310.781 27.6745C311.05 27.6679 311.312 27.592 311.543 27.4541C311.775 27.3163 311.966 27.1211 312.1 26.8875C312.234 26.6539 312.305 26.3896 312.308 26.1203L313.93 19.9419C314.504 17.9683 314.922 15.9524 315.179 13.913C315.57 9.98899 314.641 5.76773 311.905 2.93056C309.169 0.0933951 304.425 -0.914463 301.146 1.27153C297.256 -3.7032 279.472 7.28785 283.859 10.7471C284.639 11.3626 285.832 10.5838 286.823 10.5084C287.814 10.4329 288.924 10.6073 289.553 11.377C290.375 12.3825 290.017 13.8803 290.356 15.1347C290.496 15.5761 290.722 15.9853 291.021 16.3387C291.32 16.6922 291.685 16.983 292.097 17.1942C292.509 17.4054 292.958 17.533 293.419 17.5695C293.88 17.606 294.344 17.5508 294.784 17.407C295.603 17.003 296.374 16.5071 297.081 15.9289C297.84 15.4222 298.801 15.0478 299.656 15.3674C300.783 15.7886 301.184 17.1705 301.286 18.3709C301.458 19.5681 301.707 20.7529 302.033 21.9176Z" fill="#2F2E41"/>
<path opacity="0.2" d="M299.039 56.3162L296.951 81.922L285.989 108.573L302.171 82.4446L299.039 56.3162Z" fill="black"/>
<path d="M283.426 118.498C284.025 118.017 284.51 117.41 284.849 116.721C285.188 116.032 285.372 115.277 285.388 114.509C285.404 113.74 285.251 112.978 284.941 112.276C284.631 111.573 284.17 110.947 283.592 110.442L290.575 93.126L281.074 95.0468L275.899 111.196C275.116 112.224 274.737 113.505 274.833 114.794C274.93 116.084 275.495 117.294 276.423 118.194C277.351 119.094 278.576 119.622 279.867 119.678C281.158 119.734 282.424 119.314 283.426 118.498Z" fill="#FFB8B8"/>
<path d="M282.918 110.861L277.54 108.92C276.986 108.717 276.528 108.314 276.256 107.79C275.984 107.266 275.918 106.659 276.07 106.088L284.942 73.5744L286.295 44.1891C286.336 43.3022 286.552 42.4322 286.932 41.6297C287.312 40.8273 287.847 40.1084 288.506 39.5149C289.166 38.9214 289.937 38.465 290.774 38.1725C291.612 37.8799 292.499 37.7569 293.384 37.8106C294.269 37.8643 295.135 38.0937 295.931 38.4855C296.727 38.8772 297.437 39.4234 298.02 40.0923C298.604 40.7613 299.048 41.5396 299.328 42.3821C299.608 43.2246 299.718 44.1144 299.652 44.9998L297.236 77.176L285.931 109.428C285.759 109.915 285.433 110.333 285.001 110.616C284.57 110.899 284.057 111.032 283.542 110.995C283.329 110.979 283.119 110.934 282.918 110.861Z" fill="#3F3D56"/>
<path d="M338.344 120.196C338.711 119.521 338.926 118.774 338.974 118.008C339.021 117.241 338.9 116.473 338.619 115.758C338.338 115.043 337.904 114.399 337.347 113.87C336.791 113.341 336.125 112.941 335.397 112.698L335.177 94.0254L327.149 99.4627L328.588 116.361C328.261 117.612 328.404 118.94 328.989 120.093C329.575 121.246 330.562 122.144 331.765 122.617C332.968 123.089 334.302 123.104 335.514 122.658C336.727 122.212 337.734 121.336 338.344 120.196Z" fill="#FFB8B8"/>
<path d="M334.936 113.345L329.226 113.629C328.637 113.655 328.059 113.46 327.606 113.081C327.154 112.702 326.859 112.167 326.78 111.582L322.455 78.1561L312.394 50.5176C312.091 49.6834 311.956 48.7971 311.997 47.9102C312.039 47.0233 312.256 46.1535 312.636 45.3514C313.016 44.5493 313.552 43.8309 314.212 43.2379C314.872 42.645 315.644 42.1893 316.481 41.8975C317.319 41.6056 318.206 41.4833 319.091 41.5378C319.976 41.5922 320.842 41.8223 321.638 42.2146C322.433 42.607 323.143 43.1537 323.726 43.8231C324.308 44.4925 324.752 45.2712 325.031 46.1139L335.185 76.7379L337.165 110.86C337.194 111.376 337.054 111.887 336.764 112.315C336.475 112.743 336.053 113.064 335.564 113.228C335.361 113.295 335.15 113.335 334.936 113.345Z" fill="#3F3D56"/>
<path d="M403.478 218.925H204.604C204.466 218.925 204.333 218.87 204.235 218.772C204.137 218.674 204.083 218.541 204.083 218.403C204.083 218.264 204.137 218.131 204.235 218.033C204.333 217.935 204.466 217.88 204.604 217.88H403.478C403.616 217.88 403.749 217.935 403.847 218.033C403.945 218.131 404 218.264 404 218.403C404 218.541 403.945 218.674 403.847 218.772C403.749 218.87 403.616 218.925 403.478 218.925Z" fill="#3F3D56"/>
<path d="M168.713 106.104C165.715 106.104 163.331 105.211 161.626 103.451C157.773 99.4711 158.014 91.8008 158.208 85.6374C158.264 83.8444 158.318 82.1506 158.264 80.7319L158.264 80.7105C158.277 77.9386 159.383 75.284 161.34 73.3235C163.297 71.363 165.948 70.2548 168.717 70.2397H193.572C196.566 70.2397 198.947 71.131 200.651 72.8893C204.504 76.8655 204.265 84.5341 204.074 90.6959C204.018 92.4928 203.965 94.1901 204.02 95.6113C204.01 98.3873 202.906 101.047 200.947 103.012C198.988 104.977 196.334 106.088 193.561 106.104H168.713ZM159.308 80.7031C159.362 82.1557 159.308 83.863 159.251 85.6703C159.064 91.6364 158.83 99.0616 162.375 102.723C163.897 104.295 165.97 105.059 168.713 105.059H193.56C196.053 105.045 198.441 104.048 200.204 102.282C201.967 100.517 202.963 98.1264 202.976 95.6299C202.92 94.1939 202.973 92.479 203.03 90.6632C203.216 84.6986 203.447 77.2752 199.902 73.617C198.381 72.0478 196.31 71.2849 193.572 71.2849H168.719C166.228 71.2988 163.842 72.2954 162.081 74.0586C160.319 75.8217 159.322 78.2092 159.308 80.7031Z" fill="#3F3D56"/>
<path d="M33.9757 38.4261C29.6175 38.3996 25.3542 37.1495 21.6705 34.8179C16.274 31.4607 12.1992 26.084 11.0365 20.7866L10.9199 20.2556L12.3783 19.9943C23.8582 17.4578 36.8428 25.6318 39.6244 37.1536L39.7464 37.6588L39.2424 37.7836C37.5193 38.2105 35.7507 38.4263 33.9757 38.4261ZM12.1824 21.0913C13.435 25.9508 17.2367 30.829 22.2216 33.9302C27.0413 37.0182 32.882 38.0813 38.479 36.8893C35.5687 26.1549 23.3821 18.6224 12.5935 21.0173L12.1824 21.0913Z" fill="#3F3D56"/>
<path d="M19.4947 97.8117C16.0796 97.8117 13.3051 96.2818 11.6762 93.4908C10.7632 91.8671 10.2833 90.0354 10.2827 88.1721C10.2821 86.3088 10.7609 84.4767 11.6729 82.8524C13.3278 80.0138 16.1685 78.4739 19.6767 78.5277H52.793C56.2894 78.4831 59.1321 80.0161 60.7881 82.8581C61.7001 84.482 62.1792 86.3136 62.179 88.1766C62.1788 90.0396 61.6995 91.8712 60.7871 93.4949C59.1319 96.3303 56.2899 97.8446 52.7851 97.8105H19.6683C19.6102 97.8112 19.5524 97.8116 19.4947 97.8117ZM19.5141 79.5716C16.4685 79.5716 14.0083 80.9199 12.5745 83.3793C11.7529 84.8427 11.3216 86.4932 11.3222 88.1718C11.3227 89.8504 11.7551 91.5006 12.5776 92.9634C14.0356 95.4619 16.5462 96.8143 19.6604 96.7653H52.793C55.9105 96.8151 58.4288 95.4632 59.8858 92.9675C60.7077 91.5046 61.1395 89.8546 61.1396 88.1762C61.1397 86.4978 60.7081 84.8477 59.8864 83.3847C58.4284 80.8826 55.9096 79.5354 52.8004 79.5729H19.6658C19.6152 79.5721 19.5644 79.5716 19.5141 79.5716Z" fill="#3F3D56"/>
<path d="M177.212 82.6666H166.772C166.08 82.6666 165.416 82.3913 164.927 81.9013C164.437 81.4113 164.162 80.7467 164.162 80.0538C164.162 79.3608 164.437 78.6962 164.927 78.2062C165.416 77.7162 166.08 77.4409 166.772 77.4409H177.212C177.904 77.4409 178.568 77.7162 179.057 78.2062C179.546 78.6962 179.821 79.3608 179.821 80.0538C179.821 80.7467 179.546 81.4113 179.057 81.9013C178.568 82.3913 177.904 82.6666 177.212 82.6666Z" fill="#0067FF"/>
<path d="M177.212 91.0277H166.772C166.08 91.0277 165.416 90.7524 164.927 90.2624C164.437 89.7724 164.162 89.1078 164.162 88.4148C164.162 87.7219 164.437 87.0573 164.927 86.5673C165.416 86.0773 166.08 85.802 166.772 85.802H177.212C177.904 85.802 178.568 86.0773 179.057 86.5673C179.546 87.0573 179.821 87.7219 179.821 88.4148C179.821 89.1078 179.546 89.7724 179.057 90.2624C178.568 90.7524 177.904 91.0277 177.212 91.0277Z" fill="#0067FF"/>
<path d="M177.212 99.3888H166.772C166.08 99.3888 165.416 99.1135 164.927 98.6235C164.437 98.1335 164.162 97.4689 164.162 96.7759C164.162 96.083 164.437 95.4184 164.927 94.9284C165.416 94.4384 166.08 94.1631 166.772 94.1631H177.212C177.904 94.1631 178.568 94.4384 179.057 94.9284C179.546 95.4184 179.821 96.083 179.821 96.7759C179.821 97.4689 179.546 98.1335 179.057 98.6235C178.568 99.1135 177.904 99.3888 177.212 99.3888Z" fill="#0067FF"/>
<path d="M195.481 82.6666H185.041C184.349 82.6666 183.685 82.3913 183.196 81.9013C182.706 81.4113 182.431 80.7467 182.431 80.0538C182.431 79.3608 182.706 78.6962 183.196 78.2062C183.685 77.7162 184.349 77.4409 185.041 77.4409H195.481C196.173 77.4409 196.837 77.7162 197.326 78.2062C197.816 78.6962 198.09 79.3608 198.09 80.0538C198.09 80.7467 197.816 81.4113 197.326 81.9013C196.837 82.3913 196.173 82.6666 195.481 82.6666Z" fill="#0067FF"/>
<path d="M195.481 91.0277H185.041C184.349 91.0277 183.685 90.7524 183.196 90.2624C182.706 89.7724 182.431 89.1078 182.431 88.4148C182.431 87.7219 182.706 87.0573 183.196 86.5673C183.685 86.0773 184.349 85.802 185.041 85.802H195.481C196.173 85.802 196.837 86.0773 197.326 86.5673C197.816 87.0573 198.09 87.7219 198.09 88.4148C198.09 89.1078 197.816 89.7724 197.326 90.2624C196.837 90.7524 196.173 91.0277 195.481 91.0277Z" fill="#0067FF"/>
<path d="M195.481 99.3888H185.041C184.349 99.3888 183.685 99.1135 183.196 98.6235C182.706 98.1335 182.431 97.4689 182.431 96.7759C182.431 96.083 182.706 95.4184 183.196 94.9284C183.685 94.4384 184.349 94.1631 185.041 94.1631H195.481C196.173 94.1631 196.837 94.4384 197.326 94.9284C197.816 95.4184 198.09 96.083 198.09 96.7759C198.09 97.4689 197.816 98.1335 197.326 98.6235C196.837 99.1135 196.173 99.3888 195.481 99.3888Z" fill="#0067FF"/>
<path d="M219.231 45.5332H0.626465V46.5783H219.231V45.5332Z" fill="#3F3D56"/>
<path d="M202.005 133.094H17.2253C12.6584 133.089 8.28011 131.271 5.05086 128.038C1.82161 124.805 0.0051587 120.422 0 115.85V25.9679C0.0051587 21.3959 1.82161 17.0126 5.05086 13.7797C8.28011 10.5468 12.6584 8.72831 17.2253 8.72314H202.005C206.572 8.72831 210.951 10.5468 214.18 13.7797C217.409 17.0126 219.225 21.3959 219.231 25.9679V115.85C219.225 120.422 217.409 124.805 214.18 128.038C210.951 131.271 206.572 133.089 202.005 133.094ZM17.2253 9.76828C12.9352 9.77316 8.82226 11.4815 5.78873 14.5184C2.7552 17.5554 1.04883 21.673 1.04396 25.9679V115.85C1.04883 120.144 2.75521 124.262 5.78874 127.299C8.82227 130.336 12.9352 132.044 17.2253 132.049H202.005C206.295 132.044 210.408 130.336 213.442 127.299C216.475 124.262 218.182 120.144 218.187 115.85V25.9679C218.182 21.673 216.475 17.5554 213.442 14.5184C210.408 11.4815 206.295 9.77315 202.005 9.76828H17.2253Z" fill="#3F3D56"/>
</g>
<defs>
<clipPath id="clip0_3158_230298">
<rect width="404" height="219" fill="white"/>
</clipPath>
</defs>
</svg>
