<svg width="44" height="32" viewBox="0 0 44 32" fill="none" xmlns="http://www.w3.org/2000/svg">
<rect x="0.5" y="0.5" width="43" height="31" rx="3.5" stroke="#E4EBF7"/>
<path d="M14.708 10.1666C14.4759 10.1666 14.2534 10.2588 14.0893 10.4229C13.9252 10.587 13.833 10.8096 13.833 11.0416C13.833 11.2737 13.9252 11.4962 14.0893 11.6603C14.2534 11.8244 14.4759 11.9166 14.708 11.9166H19.3747C19.6067 11.9166 19.8293 11.8244 19.9934 11.6603C20.1575 11.4962 20.2497 11.2737 20.2497 11.0416C20.2497 10.8096 20.1575 10.587 19.9934 10.4229C19.8293 10.2588 19.6067 10.1666 19.3747 10.1666H14.708Z" fill="#1E97DE"/>
<path fill-rule="evenodd" clip-rule="evenodd" d="M32.719 11.338C32.6467 11.3334 32.5673 11.3334 32.4857 11.3334H29.2505C26.601 11.3334 24.333 13.3587 24.333 16C24.333 18.6414 26.601 20.6667 29.2505 20.6667H32.4857C32.5673 20.6667 32.6467 20.6667 32.719 20.662C33.7958 20.5967 34.7478 19.7789 34.8283 18.6355C34.833 18.5609 34.833 18.4804 34.833 18.4057V13.5944C34.833 13.5197 34.833 13.4392 34.8283 13.3645C34.7478 12.2212 33.7958 11.4045 32.719 11.338ZM28.9658 17.2449C29.6472 17.2449 30.2002 16.6872 30.2002 16C30.2002 15.3117 29.6472 14.7552 28.9658 14.7552C28.2833 14.7552 27.7292 15.3129 27.7292 16C27.7292 16.6884 28.2833 17.2449 28.9658 17.2449Z" fill="#1E97DE"/>
<path opacity="0.5" d="M32.663 11.3357C32.663 9.95783 32.6117 8.47967 31.732 7.4215C31.646 7.31784 31.5553 7.21818 31.4602 7.12283C30.5863 6.25017 29.4792 5.86283 28.1118 5.6785C26.7818 5.5 25.0843 5.5 22.94 5.5H20.476C18.3317 5.5 16.633 5.5 15.303 5.6785C13.9357 5.86283 12.8285 6.25017 11.9547 7.12283C11.082 7.99667 10.6947 9.10383 10.5103 10.4712C10.333 11.8012 10.333 13.4987 10.333 15.643V15.7737C10.333 17.918 10.333 19.6167 10.5115 20.9455C10.6958 22.3128 11.0832 23.42 11.9558 24.2938C12.8297 25.1665 13.9368 25.5538 15.3042 25.7382C16.6342 25.9167 18.3317 25.9167 20.476 25.9167H22.94C25.0843 25.9167 26.783 25.9167 28.1118 25.7382C29.4792 25.5538 30.5863 25.1665 31.4602 24.2938C31.6926 24.0607 31.8984 23.8024 32.0738 23.5238C32.5988 22.6838 32.6618 21.6548 32.6618 20.6655L32.4868 20.6667H29.2505C26.601 20.6667 24.333 18.6413 24.333 16C24.333 13.3587 26.601 11.3333 29.2505 11.3333H32.4857C32.5463 11.3333 32.607 11.3333 32.663 11.3357Z" fill="#1E97DE"/>
</svg>
