<svg width="20" height="20" viewBox="0 0 20 20" fill="none" xmlns="http://www.w3.org/2000/svg">
<path d="M11.6905 10.9687C11.82 10.8652 11.9854 10.8173 12.1502 10.8357C12.315 10.854 12.4657 10.9371 12.5693 11.0666C12.6728 11.1961 12.7207 11.3615 12.7023 11.5263C12.684 11.6911 12.6009 11.8418 12.4714 11.9454L10.393 13.6079C10.2818 13.6989 10.1426 13.7487 9.99886 13.7487H9.9922C9.85108 13.7478 9.71445 13.6991 9.6047 13.6104L7.52386 11.9454C7.39435 11.8418 7.31127 11.6911 7.29291 11.5263C7.27455 11.3615 7.3224 11.1961 7.42595 11.0666C7.52949 10.9371 7.68024 10.854 7.84504 10.8357C8.00984 10.8173 8.17518 10.8652 8.3047 10.9687L9.3722 11.8237V8.95703C9.3722 8.79127 9.43805 8.6323 9.55526 8.51509C9.67247 8.39788 9.83144 8.33203 9.9972 8.33203C10.163 8.33203 10.3219 8.39788 10.4391 8.51509C10.5563 8.6323 10.6222 8.79127 10.6222 8.95703V11.8237L11.6905 10.9687Z" fill="#0067FF"/>
<path fill-rule="evenodd" clip-rule="evenodd" d="M5.83073 1.875C5.22294 1.875 4.64005 2.11644 4.21028 2.54621C3.78051 2.97598 3.53906 3.55888 3.53906 4.16667V15.8333C3.53906 16.4411 3.78051 17.024 4.21028 17.4538C4.64005 17.8836 5.22294 18.125 5.83073 18.125H14.1641C14.7719 18.125 15.3547 17.8836 15.7845 17.4538C16.2143 17.024 16.4557 16.4411 16.4557 15.8333V6.83167C16.4557 6.52672 16.3601 6.22945 16.1824 5.98167L13.6707 2.48333C13.5358 2.29522 13.358 2.14194 13.1521 2.03616C12.9462 1.93038 12.7181 1.87513 12.4866 1.875H5.83073ZM4.78906 4.16667C4.78906 3.59167 5.25573 3.125 5.83073 3.125H11.8724V6.78917C11.8724 7.13417 12.1524 7.41417 12.4974 7.41417H15.2057V15.8333C15.2057 16.4083 14.7391 16.875 14.1641 16.875H5.83073C5.25573 16.875 4.78906 16.4083 4.78906 15.8333V4.16667Z" fill="#0067FF"/>
</svg>
