<svg width="21" height="24" viewBox="0 0 21 24" fill="none" xmlns="http://www.w3.org/2000/svg">
<g clip-path="url(#clip0_3551_24540)">
<path d="M12.5051 3.67739C14.2534 3.70463 16.0739 3.92253 17.8089 4.62313C18.5064 4.90438 19.1658 5.2534 19.6985 5.7988C20.4181 6.53613 20.4219 7.27473 19.7004 8.01333C19.067 8.66198 18.2669 9.04331 17.4276 9.33533C15.1364 10.1322 12.7781 10.2671 10.3843 10.01C9.1757 9.88009 7.99813 9.61721 6.87376 9.1472C6.20928 8.86975 5.58153 8.52832 5.07477 8.00256C4.37292 7.27536 4.36912 6.53613 5.07414 5.80957C5.70569 5.15839 6.5051 4.78275 7.34314 4.4825C8.82477 3.95231 10.582 3.67739 12.5057 3.67676L12.5051 3.67739ZM11.7551 5.45294C11.8995 5.45294 11.9762 5.43457 12.0395 5.45611C12.3746 5.56949 12.7141 5.67528 13.0359 5.81844C13.3178 5.94386 13.715 5.91409 13.8467 5.71202C13.9766 5.51248 13.874 5.31358 13.5218 5.09821C12.8548 4.6909 12.1193 4.6795 11.3795 4.76438C11.1559 4.78972 11.0076 4.76058 10.8505 4.60096C10.6092 4.35581 10.2355 4.32034 9.94787 4.4806C9.71793 4.60856 9.67866 4.78085 9.82879 5.00003C9.86046 5.04627 9.89023 5.09378 9.92064 5.14128C9.73694 5.2515 9.56591 5.33702 9.41515 5.44977C9.26502 5.56253 9.11869 5.68922 9.00024 5.83364C8.65754 6.25108 8.71075 6.7306 9.1529 7.03972C9.37334 7.19365 9.62862 7.314 9.88516 7.39445C10.5965 7.61742 11.3199 7.55915 12.042 7.42802C12.1415 7.41029 12.2847 7.37798 12.3423 7.42802C12.6939 7.73335 13.0271 8.06084 13.4097 8.4219C12.6812 8.56949 12.0541 8.54416 11.4206 8.30218C11.2027 8.21856 10.9082 8.25404 10.6719 8.31992C10.4382 8.38516 10.4255 8.65438 10.6402 8.78233C10.8632 8.91536 11.1071 9.02811 11.356 9.10159C12.0382 9.30239 12.7331 9.25362 13.4217 9.13263C13.7726 9.07118 14.0931 8.9635 14.3902 9.31696C14.5689 9.5298 15.068 9.44492 15.2631 9.24665C15.5026 9.0034 15.2916 8.83364 15.1421 8.66198C15.3372 8.53085 15.5235 8.4295 15.6806 8.29521C16.1214 7.91704 16.1404 7.37735 15.6825 7.02389C15.3917 6.79965 15.0408 6.58491 14.6892 6.5241C14.1692 6.43478 13.6244 6.48609 13.0904 6.47659C12.9998 6.47469 12.8763 6.50446 12.8231 6.45759C12.4728 6.14656 12.1383 5.81844 11.7545 5.45357L11.7551 5.45294Z" fill="#002B6B"/>
<path d="M4.54763 13.8815C7.00477 15.5988 9.73302 16.0181 12.5633 16.013C14.6771 16.0099 16.7408 15.6969 18.6766 14.7968C19.2068 14.5504 19.7003 14.2236 20.2425 13.9157C20.2425 14.0392 20.2425 14.1792 20.2425 14.3186C20.2425 14.8032 20.2102 15.2903 20.2501 15.7717C20.3141 16.5407 19.9619 17.0855 19.3981 17.5371C18.7058 18.092 17.9076 18.4423 17.069 18.7033C14.8506 19.3937 12.5842 19.5122 10.2886 19.2468C8.90004 19.0859 7.5432 18.7831 6.30671 18.1135C5.80692 17.8424 5.36288 17.4535 4.93404 17.0734C4.64265 16.8156 4.54003 16.4393 4.5451 16.039C4.55397 15.3365 4.54763 14.634 4.54763 13.8809V13.8815Z" fill="#002B6B"/>
<path d="M20.2349 18.502C20.2349 19.3229 20.29 20.116 20.2095 20.8945C20.1734 21.2454 19.9226 21.6198 19.6711 21.8941C19.0674 22.5535 18.2598 22.9095 17.4306 23.2047C15.5885 23.8596 13.68 24.0573 11.7397 23.9876C10.0567 23.9274 8.39957 23.6854 6.85016 22.9925C6.26232 22.7296 5.71185 22.3609 5.19243 21.9758C4.72305 21.6274 4.51274 21.1181 4.53935 20.5074C4.56722 19.8575 4.54568 19.2051 4.54568 18.5032C6.92997 20.1964 9.61768 20.6405 12.3991 20.6386C15.1736 20.6373 17.855 20.1983 20.2349 18.502Z" fill="#002B6B"/>
<path d="M4.54697 9.28685C5.05056 9.5795 5.506 9.87912 5.99122 10.1186C7.39494 10.8122 8.90317 11.1479 10.4488 11.2999C12.5582 11.5071 14.6523 11.4076 16.7155 10.8768C18.0254 10.5398 18.8603 10.161 20.226 9.25391C20.2324 9.37236 20.2419 9.46864 20.2419 9.56493C20.2431 10.123 20.2197 10.6823 20.2488 11.2385C20.2824 11.8738 20.022 12.3584 19.5704 12.7657C18.9503 13.3257 18.2142 13.6861 17.4351 13.9572C15.1236 14.7617 12.745 14.8941 10.3316 14.6281C8.93231 14.4741 7.5704 14.1606 6.31745 13.5005C5.8677 13.2636 5.45533 12.938 5.06703 12.6055C4.69266 12.2849 4.52733 11.8479 4.5419 11.3373C4.5609 10.6583 4.54633 9.97793 4.54633 9.28621L4.54697 9.28685Z" fill="#002B6B"/>
<path d="M11.4557 2.36942C10.4523 2.52588 9.49134 2.63927 8.5456 2.8312C7.1951 3.10485 5.91744 3.5793 4.78864 4.39898C4.71959 4.44902 4.61254 4.48133 4.52829 4.47246C3.32854 4.34704 2.15477 4.1133 1.08741 3.51786C0.8334 3.37596 0.591424 3.19416 0.38302 2.99083C-0.109167 2.51068 -0.0977651 2.02166 0.394422 1.5358C0.838468 1.09746 1.38577 0.821276 1.96854 0.629976C4.55363 -0.218842 7.13999 -0.22581 9.70354 0.705989C10.178 0.878286 10.6144 1.18171 11.0312 1.47689C11.3245 1.6853 11.5253 1.99505 11.4569 2.36942H11.4557Z" fill="#002B6B"/>
<path d="M0.0201713 4.35742C1.13504 5.09539 2.33985 5.43428 3.62828 5.64775C3.22984 6.29577 3.26912 7.00459 3.28242 7.75903C2.15235 7.48791 1.07613 7.21363 0.288752 6.34454C0.134825 6.17478 0.0550108 5.89733 0.0315733 5.66042C-0.00960069 5.24805 0.0201713 4.82934 0.0201713 4.35806V4.35742Z" fill="#002B6B"/>
<path d="M0.0195799 11.2881C1.03689 11.9716 2.12642 12.301 3.26029 12.5271V14.6967C2.15619 14.4198 1.08314 14.1544 0.302097 13.2942C0.136767 13.1118 0.0601205 12.809 0.0309819 12.5518C-0.0133593 12.1572 0.0195799 11.7543 0.0195799 11.2881Z" fill="#002B6B"/>
<path d="M3.26071 9.05379V11.2385C2.80716 11.1055 2.38022 11.0054 1.97292 10.854C1.61122 10.7191 1.25966 10.5456 0.922662 10.3555C0.300619 10.0046 -0.0800824 9.50987 0.0143011 8.7396C0.0485071 8.46025 0.0200021 8.17267 0.0200021 7.82617C1.02655 8.48812 2.11291 8.84159 3.26071 9.05506V9.05379Z" fill="#002B6B"/>
<path d="M11.6494 6.74416C11.0945 6.83411 10.6149 6.85375 10.1608 6.63711C9.75156 6.44201 9.73762 6.16899 10.1101 5.91435C10.4902 5.654 10.5066 5.6559 10.8392 5.97326C11.0951 6.21713 11.351 6.46038 11.6494 6.74416Z" fill="#002B6B"/>
<path d="M13.5527 7.16279C14.0304 7.10894 14.4225 7.16152 14.7734 7.4054C15.08 7.61887 15.073 7.75632 14.7518 7.96093C14.6828 8.00527 14.6062 8.03757 14.5206 8.08192C14.2077 7.78483 13.8999 7.49281 13.5527 7.16279Z" fill="#002B6B"/>
</g>
<defs>
<clipPath id="clip0_3551_24540">
<rect width="20.257" height="24" fill="white"/>
</clipPath>
</defs>
</svg>
