<svg width="25" height="24" viewBox="0 0 25 24" fill="none" xmlns="http://www.w3.org/2000/svg">
<g clip-path="url(#clip0_3551_24521)">
<path d="M24.0165 10.2621C23.5223 10.1928 23.0272 10.1316 22.5349 10.0537C20.5749 9.74399 18.6159 9.42951 16.6563 9.11694C16.0293 9.01705 15.4022 8.91955 14.7747 8.82109C14.6681 8.80437 14.583 8.78573 14.584 8.63757C14.5902 7.4456 14.5883 6.25363 14.5902 5.06213C14.5902 5.0411 14.6041 5.02055 14.6198 4.97754C14.985 5.14577 15.343 5.31066 15.7005 5.4765C18.3917 6.72535 21.083 7.97419 23.7747 9.22208C23.8521 9.25793 23.9362 9.28039 24.017 9.30859V10.2625L24.0165 10.2621Z" fill="#002B6B"/>
<path d="M14.19 17.5777C14.1537 17.4277 14.1417 17.281 14.0834 17.1557C13.9467 16.8628 13.6982 16.7165 13.377 16.7151C12.4709 16.7108 11.5647 16.7079 10.6586 16.716C10.2236 16.7199 9.93496 16.9999 9.88286 17.4329C9.8776 17.4783 9.86805 17.5233 9.8561 17.593C9.34136 17.4434 8.84049 17.2982 8.34009 17.1524C7.01477 16.7657 5.68946 16.3786 4.36414 15.992C3.78011 15.8218 3.45415 15.3912 3.45368 14.7804C3.45272 14.0492 3.4532 13.3179 3.45368 12.5867C3.45368 12.1326 3.57842 12.0065 4.03293 12.0065C8.06288 12.006 12.0928 12.006 16.1228 12.006C17.4185 12.006 18.7142 12.0055 20.0094 12.0065C20.4615 12.0065 20.5853 12.1341 20.5857 12.5905C20.5857 13.3299 20.5872 14.0687 20.5857 14.8081C20.5843 15.373 20.256 15.8237 19.7173 15.9819C17.9361 16.5053 16.1534 17.0233 14.3707 17.5429C14.3119 17.5601 14.2498 17.5668 14.19 17.5782V17.5777Z" fill="#002B6B"/>
<path d="M13.7443 23.9998C13.7386 23.9066 13.7309 23.8368 13.7309 23.767C13.7304 22.6066 13.7323 21.4462 13.7285 20.2858C13.7285 20.15 13.7773 20.0669 13.8676 19.9612C13.9981 19.8078 14.1027 19.6071 14.1448 19.4107C14.1921 19.1903 14.1697 18.9514 14.1544 18.722C14.1424 18.5451 14.2093 18.4753 14.3756 18.4276C16.1287 17.9224 17.8808 17.4124 19.6305 16.8953C19.9469 16.8016 20.2509 16.6678 20.5764 16.5469C20.5792 16.6014 20.5859 16.6759 20.5859 16.751C20.5864 18.9843 20.5869 21.2177 20.5859 23.4507C20.5859 23.8555 20.4435 23.9998 20.0449 24.0003C18.0261 24.0003 16.0073 24.0003 13.989 24.0003C13.9116 24.0003 13.8346 24.0003 13.7448 24.0003L13.7443 23.9998Z" fill="#002B6B"/>
<path d="M3.45901 16.5737C5.49262 17.2638 7.57164 17.8005 9.62676 18.4156C9.81794 18.473 9.90588 18.548 9.88389 18.7559C9.86477 18.9366 9.88389 19.121 9.87911 19.3036C9.87194 19.5932 9.96514 19.8293 10.2051 20.0071C10.2581 20.0463 10.3035 20.1347 10.3035 20.2007C10.3078 21.4405 10.305 22.6802 10.303 23.92C10.303 23.9348 10.2944 23.9496 10.2834 23.9836C10.2314 23.9883 10.1711 23.9993 10.1114 23.9993C8.06105 24.0003 6.01023 24.0008 3.95988 23.9993C3.61577 23.9993 3.45471 23.8454 3.45423 23.5114C3.45232 21.2225 3.45327 18.9332 3.45423 16.6444C3.45423 16.6066 3.45996 16.5689 3.45949 16.5737H3.45901ZM5.16763 22.2845C5.16763 22.1717 5.16763 22.0862 5.16763 22.0006C5.16763 21.5322 5.17336 21.0639 5.16428 20.5955C5.15902 20.3274 4.97454 20.1453 4.73748 20.1438C4.49947 20.1424 4.31547 20.3274 4.31308 20.5921C4.30782 21.1714 4.304 21.7511 4.31499 22.3304C4.32359 22.7634 4.66914 23.1238 5.10215 23.1357C5.69718 23.1524 6.29269 23.1462 6.88819 23.1381C7.12525 23.1347 7.29683 22.9522 7.30591 22.7304C7.31499 22.5024 7.14102 22.3122 6.89632 22.2874C6.82558 22.2802 6.75342 22.2845 6.6822 22.284C6.19041 22.284 5.69909 22.284 5.1681 22.284L5.16763 22.2845ZM8.79133 23.141C8.79133 23.141 8.79133 23.1419 8.79133 23.1424C8.86254 23.1424 8.93376 23.1453 9.00449 23.1419C9.26831 23.1285 9.44706 22.9531 9.44563 22.7123C9.44419 22.4828 9.2707 22.3036 9.02217 22.2878C8.87258 22.2788 8.72155 22.2773 8.57244 22.2893C8.32487 22.3094 8.16428 22.4929 8.17097 22.7299C8.17719 22.9565 8.33921 23.1214 8.57865 23.14C8.64939 23.1457 8.7206 23.141 8.79181 23.141H8.79133ZM5.17958 18.6895C5.17527 18.689 5.17097 18.6885 5.16667 18.688C5.16667 18.6402 5.16954 18.5925 5.16619 18.5451C5.1466 18.2808 4.96546 18.0968 4.73032 18.1002C4.49135 18.1035 4.32025 18.2875 4.31212 18.5557C4.3083 18.6747 4.30256 18.7956 4.31834 18.9127C4.34701 19.1273 4.47749 19.2573 4.69399 19.2783C4.90954 19.2988 5.06583 19.1999 5.13369 18.993C5.16524 18.8969 5.16524 18.7913 5.18005 18.6895H5.17958Z" fill="#002B6B"/>
<path d="M13.7191 11.1318H10.3272C10.3196 11.0711 10.3086 11.0248 10.3086 10.9784C10.3105 8.36411 10.3091 5.75028 10.3196 3.13598C10.3225 2.41525 10.4501 1.70934 10.7708 1.05887C10.9017 0.793137 11.08 0.536486 11.2884 0.326672C11.7252 -0.113506 12.3011 -0.102514 12.7571 0.321415C13.1743 0.709021 13.408 1.21085 13.5146 1.75188C13.6264 2.31727 13.7158 2.89701 13.7206 3.47101C13.7426 5.95006 13.7301 8.42911 13.7297 10.9082C13.7297 10.9784 13.723 11.0487 13.7187 11.1323L13.7191 11.1318Z" fill="#002B6B"/>
<path d="M0.00333644 10.2937C0.00333644 9.98738 -0.00813401 9.7183 0.0114613 9.45066C0.0162407 9.38471 0.111828 9.30154 0.184474 9.26761C1.45578 8.67163 2.72996 8.08281 4.00318 7.4916C5.73713 6.68676 7.47012 5.88096 9.20407 5.0766C9.27337 5.04457 9.34649 5.01924 9.43778 4.9834V8.79159C6.30874 9.2896 3.17922 9.78808 0.00333644 10.2937Z" fill="#002B6B"/>
<path d="M12.8616 23.9912H11.1816V20.1553H12.8616V23.9912Z" fill="#002B6B"/>
<path d="M13.2931 17.5977V19.2642H10.75V17.5977H13.2931Z" fill="#002B6B"/>
</g>
<defs>
<clipPath id="clip0_3551_24521">
<rect width="24.0167" height="24" fill="white"/>
</clipPath>
</defs>
</svg>
