<?xml version="1.0" encoding="UTF-8"?>
<!-- Generated by Pixelmator Pro 3.6.2 -->
<svg width="400" height="107" viewBox="0 0 400 107" xmlns="http://www.w3.org/2000/svg">
    <g id="Group">
        <g id="Group-copy">
            <linearGradient id="linearGradient1" x1="26.739947" y1="31.713862" x2="23.657922" y2="-5.471929" gradientUnits="userSpaceOnUse">
                <stop offset="0" stop-color="#283e99" stop-opacity="1"/>
                <stop offset="1" stop-color="#009ed4" stop-opacity="1"/>
            </linearGradient>
            <path id="Path" fill="url(#linearGradient1)" stroke="none" d="M 36.698879 30.888184 L 35.553371 17.071663 C 35.432625 15.615349 36.51931 14.332176 37.976105 14.211395 L 64.688538 11.996727 C 66.145332 11.875946 67.42852 12.962631 67.549263 14.418945 L 68.694756 28.235466 L 78.027008 27.461761 L 76.8815 13.645241 C 76.334114 7.042809 70.517204 2.116615 63.914814 2.663994 L 37.202343 4.878685 C 30.599895 5.426079 25.673716 11.242973 26.221117 17.845406 L 27.366608 31.661926 L 36.698879 30.888184 Z"/>
            <path id="path1" fill="#283e99" stroke="none" opacity="0.2" style="mix-blend-mode:multiply" d="M 36.698879 30.888184 L 27.366608 31.661926 L 26.640116 22.899048 L 35.97237 22.125305 L 36.698879 30.888184 Z M 67.968262 19.472588 L 68.694756 28.235466 L 78.027008 27.461761 L 77.300476 18.698883 L 67.968262 19.472588 Z"/>
            <linearGradient id="linearGradient2" x1="5.731861" y1="103.241166" x2="-0.311218" y2="30.329158" gradientUnits="userSpaceOnUse">
                <stop offset="0" stop-color="#33318f" stop-opacity="1"/>
                <stop offset="1" stop-color="#009ed4" stop-opacity="1"/>
            </linearGradient>
            <path id="path2" fill="url(#linearGradient2)" stroke="none" d="M 98.879662 24.3078 C 95.009705 21.030434 89.889465 19.229385 84.436211 19.68148 L 19.764252 25.04335 C 14.311038 25.495445 9.557372 28.115143 6.280002 31.985062 C 3.002622 35.855042 1.201576 40.975197 1.653678 46.42844 L 4.877615 85.313789 C 4.881287 85.358109 4.885088 85.402374 4.889045 85.446602 C 5.403121 91.185173 12.702714 93.362335 16.426195 88.965607 L 42.709827 57.929707 L 25.261473 49.785168 C 24.488367 49.424286 24.071577 48.624512 24.181774 47.927853 C 24.218559 47.695679 24.313858 47.474934 24.474102 47.285736 L 25.718204 45.816792 C 26.038582 45.438389 26.386864 45.090706 26.759258 44.774624 C 29.366533 42.561852 33.160637 41.895782 36.906593 43.078495 L 50.306377 47.309479 C 59.202293 36.805107 63.807468 34.667564 67.740723 37.998566 C 71.673981 41.329536 70.324013 46.223846 61.428116 56.728214 L 67.808037 69.248337 C 69.591576 72.748367 69.559387 76.600327 67.806213 79.536392 C 67.555763 79.955818 67.270187 80.35659 66.949753 80.734924 L 65.705719 82.20388 C 65.545547 82.393074 65.343468 82.523445 65.120476 82.597992 C 64.451553 82.821465 63.593994 82.542007 63.110722 81.838898 L 52.203983 65.970016 L 30.316936 91.814377 C 26.56152 96.248802 30.001013 103.016907 35.797306 102.604446 C 38.299591 102.426399 40.081699 102.278656 40.081699 102.278656 L 90.934662 98.0625 C 96.515678 97.599815 101.364021 94.866783 104.647003 90.846664 C 107.779495 87.010666 109.486786 82.002869 109.045219 76.677414 L 105.82132 37.792068 C 105.369225 32.338844 102.74958 27.585175 98.879662 24.3078 Z"/>
            <path id="path3" fill="#283e99" stroke="none" opacity="0.2" style="mix-blend-mode:multiply" d="M 16.426195 88.965607 C 12.702686 93.362305 5.403158 91.185143 4.889082 85.44664 C 4.885125 85.402344 4.881259 85.358078 4.877615 85.313789 L 1.653678 46.42844 C 1.51669 44.775822 1.609669 43.160934 1.864898 41.594994 C 4.611489 41.120956 7.399687 40.756516 10.230145 40.521873 C 24.64135 39.327072 38.562397 41.438316 51.252731 46.21479 C 50.938904 46.576424 50.631485 46.925617 50.306377 47.309479 L 36.906593 43.078495 C 33.160637 41.895782 29.366533 42.561852 26.759258 44.774624 C 26.386864 45.090706 26.038582 45.438389 25.718204 45.816792 L 24.474102 47.285736 C 24.313858 47.474934 24.218559 47.695679 24.181774 47.927853 C 24.071577 48.624512 24.488367 49.424286 25.261473 49.785168 L 42.709827 57.929707 L 16.426195 88.965607 Z M 102.753227 92.830856 C 94.350929 75.822968 81.019081 61.8382 64.769852 52.567459 C 63.799995 53.851639 62.699764 55.226601 61.428116 56.728214 L 67.808037 69.248337 C 69.591576 72.748367 69.559387 76.600327 67.806213 79.536392 C 67.555763 79.955818 67.270187 80.35659 66.949753 80.734924 L 65.705719 82.20388 C 65.545547 82.393074 65.343468 82.523445 65.120476 82.597992 C 64.451553 82.821465 63.593994 82.542007 63.110722 81.838898 L 52.203983 65.970016 L 30.316956 91.814377 C 26.561539 96.248802 30.000977 103.016907 35.797287 102.604424 C 38.299591 102.426399 40.08168 102.278656 40.08168 102.278656 L 90.934662 98.0625 C 95.531723 97.681374 99.615723 95.74321 102.753227 92.830856 Z"/>
            <path id="path4" fill="#172f7a" stroke="none" opacity="0.6" style="mix-blend-mode:multiply" d="M 67.740723 37.998566 C 71.673981 41.329536 70.324013 46.223846 61.428116 56.728214 L 67.808037 69.248337 C 69.591576 72.748367 69.559387 76.600327 67.806213 79.536392 C 67.555763 79.955818 67.270187 80.35659 66.949753 80.734924 L 65.705719 82.20388 C 65.545547 82.393074 65.343468 82.523445 65.120476 82.597992 C 64.451553 82.821465 63.593994 82.542007 63.110722 81.838898 L 52.203983 65.970016 L 50.352356 68.156448 L 58.020008 88.043976 L 66.073029 85.419083 C 73.375336 79.256874 72.474319 72.777695 70.627571 68.64888 C 68.780746 64.52005 64.839928 56.90498 64.839928 56.90498 C 70.245956 50.824722 73.756439 42.646759 67.740723 37.998566 Z"/>
            <path id="path5" fill="#172f7a" stroke="none" opacity="0.6" style="mix-blend-mode:multiply" d="M 90.934662 98.0625 C 93.45475 97.853569 95.813187 97.161316 97.957825 96.117088 C 91.783485 96.34169 80.48777 94.106255 67.295532 80.251076 C 67.177513 80.410873 67.079094 80.582199 66.949753 80.734924 L 65.705719 82.20388 C 65.545547 82.393074 65.343468 82.523445 65.120476 82.597992 C 64.451553 82.821465 63.593994 82.542007 63.110722 81.838898 L 56.640003 72.424301 L 48.318268 72.186409 L 42.374302 102.088577 L 90.934662 98.0625 Z"/>
            <g id="g1">
                <linearGradient id="linearGradient3" x1="28.252466" y1="124.256773" x2="24.699335" y2="81.386915" gradientUnits="userSpaceOnUse">
                    <stop offset="0" stop-color="#ff4900" stop-opacity="1"/>
                    <stop offset="1" stop-color="#fbdd00" stop-opacity="1"/>
                </linearGradient>
                <path id="path6" fill="url(#linearGradient3)" stroke="none" d="M 63.110722 81.838898 L 52.203983 65.970016 L 30.316956 91.814377 C 26.561539 96.248802 30.000977 103.016907 35.797287 102.604424 C 38.299591 102.426399 40.08168 102.278656 40.08168 102.278656 L 90.934662 98.0625 C 93.45475 97.853569 95.813225 97.161316 97.957878 96.117088 C 90.77166 98.559654 71.383919 93.942001 63.110722 81.838898 Z"/>
            </g>
            <path id="path7" fill="#172f7a" stroke="none" opacity="0.6" style="mix-blend-mode:multiply" d="M 25.261473 49.785168 C 24.9617 49.645283 24.735056 49.428493 24.552383 49.188217 C 23.54122 50.922295 24.22352 52.461983 26.367373 53.419518 C 29.307375 54.732651 37.000004 58.36726 40.84618 60.130325 L 42.709827 57.929707 L 25.261473 49.785168 Z"/>
            <path id="path8" fill="#f94c00" stroke="none" opacity="0.2" style="mix-blend-mode:multiply" d="M 39.263985 81.249672 L 30.316956 91.814377 C 26.561539 96.248802 30.000977 103.016907 35.797287 102.604424 C 38.299591 102.426399 40.08168 102.278656 40.08168 102.278656 L 63.694122 100.320999 C 58.727249 100.732788 49.623947 98.816612 39.263985 81.249672 Z"/>
            <path id="path9" fill="#283e99" stroke="none" opacity="0.2" style="mix-blend-mode:multiply" d="M 25.261473 49.785168 C 24.488367 49.424286 24.071577 48.624512 24.181774 47.927853 C 24.218559 47.695679 24.313858 47.474934 24.474102 47.285736 L 25.718204 45.816792 C 26.038582 45.438389 26.386864 45.090706 26.759258 44.774624 C 29.366533 42.561852 33.160637 41.895782 36.906593 43.078495 L 44.349728 45.428688 C 43.808952 42.797615 43.400925 40.113403 43.173424 37.369354 C 42.770256 32.506287 42.908226 27.724968 43.513073 23.074364 L 19.764252 25.04335 C 14.311038 25.495445 9.557372 28.115143 6.280002 31.985062 C 3.002622 35.855042 1.201576 40.975197 1.653678 46.42844 L 4.877615 85.313789 C 4.881259 85.358078 4.885125 85.402344 4.889082 85.44664 C 5.403158 91.185143 12.702686 93.362305 16.426195 88.965607 L 42.709827 57.929707 L 25.261473 49.785168 Z"/>
        </g>
        <text id="BIZITRIP" xml:space="preserve" x="132" y="69" font-family="Montserrat" font-size="56.447241" font-weight="1000" fill="#11195f">BIZITRIP</text>
        <text id="Trip-wiser-Cost-Saver" xml:space="preserve" x="132.231365" y="90" font-family="Montserrat" font-size="16.30927" font-weight="700" fill="#646464">TRIP WISER COST SAVER</text>
    </g>
</svg>
