<svg width="360" height="242" viewBox="0 0 360 242" fill="none" xmlns="http://www.w3.org/2000/svg">
<g clip-path="url(#clip0_3158_220745)">
<path d="M288.896 31.578L290.05 22.3247C290.253 20.6959 290.775 19.1229 291.586 17.6957C292.397 16.2685 293.481 15.0149 294.777 14.0066C296.073 12.9984 297.554 12.2551 299.138 11.8194C300.721 11.3837 302.374 11.264 304.004 11.4672C305.633 11.6704 307.207 12.1925 308.634 13.0037C310.062 13.8148 311.316 14.8992 312.324 16.1948C313.332 17.4903 314.075 18.9718 314.51 20.5544C314.946 22.1371 315.065 23.7899 314.861 25.4186L313.706 34.6718C313.65 35.1133 313.421 35.5148 313.07 35.7881C312.719 36.0614 312.273 36.1842 311.831 36.1296L290.354 33.4514C289.912 33.3958 289.511 33.1673 289.237 32.8161C288.964 32.4649 288.841 32.0196 288.896 31.578Z" fill="#2F2E41"/>
<path d="M299.183 34.3401C304.245 34.3401 308.349 30.2384 308.349 25.1788C308.349 20.1192 304.245 16.0176 299.183 16.0176C294.121 16.0176 290.018 20.1192 290.018 25.1788C290.018 30.2384 294.121 34.3401 299.183 34.3401Z" fill="#FFB8B8"/>
<path d="M287.023 22.7006C287.351 20.1005 288.697 17.7364 290.766 16.127C292.835 14.5176 295.458 13.7943 298.06 14.1158L299.912 14.3467C302.513 14.6741 304.878 16.0194 306.488 18.0877C308.099 20.1559 308.822 22.778 308.501 25.3788L308.477 25.5639L304.565 25.0759L303.696 21.1743L302.963 24.8762L300.941 24.6241L300.503 22.6555L300.133 24.5233L287 22.8856L287.023 22.7006Z" fill="#2F2E41"/>
<path d="M254.356 57.8571C254.636 58.4068 255.033 58.8885 255.52 59.2681C256.006 59.6478 256.57 59.9162 257.172 60.0545C257.773 60.1927 258.398 60.1975 259.001 60.0684C259.605 59.9393 260.173 59.6795 260.665 59.3073L268.99 64.1817L273.187 59.8475L261.334 53.129C260.654 52.3439 259.709 51.8355 258.679 51.7002C257.648 51.5649 256.604 51.8121 255.744 52.3949C254.884 52.9777 254.267 53.8556 254.012 54.8623C253.756 55.8691 253.878 56.9346 254.356 57.8571Z" fill="#FFB8B8"/>
<path d="M281.64 66.6162C275.499 66.6162 264.694 63.8686 264.095 63.7151L263.906 63.6667L265.607 55.0603L282.111 58.3186L291.077 45.6984L301.371 44.6523L301.084 45.0303C300.95 45.2064 287.681 62.6662 285.616 65.5952C285.094 66.3341 283.606 66.6162 281.64 66.6162Z" fill="#3F3D56"/>
<path d="M283.287 98.9195L283.041 98.8023C282.989 98.7773 277.772 96.2408 275.069 91.2892C272.38 86.3609 284.969 65.4552 285.85 64.0047L285.863 57.3655L290.392 45.1438L296.167 41.8809L291.209 53.446L283.287 98.9195Z" fill="#3F3D56"/>
<path d="M277.499 170.276L271.979 170.275L269.354 148.994L277.5 148.995L277.499 170.276Z" fill="#FFB8B8"/>
<path d="M278.908 175.625L261.109 175.624V175.399C261.11 173.563 261.839 171.801 263.139 170.503C264.438 169.204 266.2 168.475 268.037 168.475H268.038L278.908 168.475L278.908 175.625Z" fill="#2F2E41"/>
<path d="M336.791 165.44L331.545 167.158L322.42 147.752L330.162 145.217L336.791 165.44Z" fill="#FFB8B8"/>
<path d="M339.795 170.085L322.881 175.625L322.811 175.411C322.239 173.665 322.384 171.765 323.214 170.126C324.044 168.488 325.491 167.246 327.237 166.674L327.238 166.674L337.568 163.291L339.795 170.085Z" fill="#2F2E41"/>
<path d="M326.063 162.218L310.327 135.959L297.043 107.905L285.089 132.686L280.341 164.782L263.688 165.013L263.753 164.753L289.238 63.5371L309.197 66.5176L308.289 79.6862L308.83 80.4554C313.339 86.8576 318.001 93.477 315.327 100.613L322.907 123.109L339.685 160.567L326.063 162.218Z" fill="#2F2E41"/>
<path d="M290.19 85.2178C287.298 85.2178 283.999 81.917 285.71 76.2816L285.6 76.2014L289.711 58.0436C286.123 52.9143 290.854 48.6811 291.297 48.3029L293.555 44.24L303.519 37.9238L308.561 79.7923L308.486 79.8636C304.845 83.3458 292.617 85.2178 290.19 85.2178Z" fill="#0067FF"/>
<path d="M310.596 94.6641C310.2 94.6702 309.805 94.6284 309.419 94.5396C309.031 94.4425 308.404 93.9493 307.435 90.7943C303.581 78.2522 299.031 40.5144 302.336 36.8215L302.412 36.7369L307.84 37.6411C308.291 37.3083 310.659 35.6563 312.843 35.9435C313.293 36.0001 313.727 36.1482 314.117 36.3788C314.507 36.6094 314.846 36.9175 315.112 37.2841L315.15 37.333L316.879 61.9218L323.214 90.858L323.062 90.9269C322.693 91.0945 314.783 94.6641 310.596 94.6641Z" fill="#3F3D56"/>
<path d="M306.945 85.0537C307.562 85.0332 308.167 84.8777 308.717 84.5981C309.267 84.3186 309.75 83.922 310.13 83.436C310.51 82.9501 310.779 82.3867 310.918 81.7856C311.057 81.1844 311.062 80.5602 310.934 79.9568L318.879 74.4867L316.731 68.8496L305.619 76.7319C304.619 77.0151 303.758 77.655 303.199 78.5303C302.639 79.4057 302.421 80.4558 302.584 81.4816C302.748 82.5073 303.282 83.4375 304.086 84.0959C304.889 84.7543 305.907 85.0951 306.945 85.0537Z" fill="#FFB8B8"/>
<path d="M316.257 78.8694L309.18 73.6817L319.128 60.1218L311.494 46.6552L314.909 36.8926L315.13 37.313C315.233 37.5089 325.429 56.9227 327.207 60.034C329.058 63.2703 316.9 78.0898 316.381 78.7188L316.257 78.8694Z" fill="#3F3D56"/>
<path d="M246.766 107.782L116.719 112.188C113.505 112.293 110.38 111.12 108.031 108.925C105.681 106.73 104.298 103.693 104.185 100.481L102.044 37.3234C101.938 34.1107 103.112 30.9874 105.308 28.6387C107.504 26.29 110.542 24.9078 113.756 24.7953L243.803 20.3893C247.017 20.2841 250.142 21.4575 252.492 23.6522C254.841 25.8468 256.224 28.8835 256.337 32.096L258.478 95.2536C258.584 98.4663 257.41 101.59 255.214 103.938C253.018 106.287 249.98 107.669 246.766 107.782Z" fill="white"/>
<path d="M258.479 95.2539L258.49 95.5881C258.594 98.6572 257.474 101.642 255.376 103.885C253.278 106.129 250.374 107.447 247.303 107.551L116.606 111.979C113.536 112.082 110.551 110.963 108.306 108.867C106.062 106.77 104.743 103.869 104.638 100.8L104.627 100.466L258.479 95.2539Z" fill="#F2F2F2"/>
<path d="M130.095 44.4607C120.729 47.1124 112.004 40.1366 110.295 33.4487L110.949 33.3089C118.85 31.2803 127.929 36.6671 130.095 44.4607Z" fill="#0067FF"/>
<path d="M222.693 89.61C220.583 89.6815 218.884 89.1112 217.642 87.9146C214.835 85.2102 214.822 79.8147 214.812 75.4792C214.809 74.218 214.806 73.0265 214.734 72.031L214.734 72.0159C214.677 70.0678 215.392 68.1762 216.723 66.7519C218.054 65.3276 219.893 64.4857 221.841 64.4091L239.334 63.8165C241.441 63.7451 243.138 64.3146 244.379 65.5095C247.186 68.2116 247.2 73.6058 247.212 77.9401C247.216 79.204 247.219 80.398 247.291 81.3953C247.351 83.3462 246.637 85.2415 245.305 86.669C243.974 88.0964 242.132 88.9405 240.181 89.0175L222.693 89.61ZM215.468 71.9858C215.541 73.0053 215.544 74.2062 215.547 75.4775C215.557 79.6742 215.57 84.8973 218.152 87.3856C219.26 88.4536 220.738 88.941 222.668 88.8756L240.155 88.2832C241.909 88.2144 243.566 87.4565 244.765 86.1739C245.964 84.8914 246.608 83.1878 246.557 81.4333C246.484 80.4256 246.48 79.2193 246.477 77.9421C246.465 73.7465 246.451 68.5247 243.869 66.0387C242.762 64.9723 241.286 64.4856 239.358 64.5509L221.867 65.1435C220.114 65.2127 218.459 65.9699 217.261 67.2508C216.064 68.5317 215.419 70.2331 215.468 71.9858Z" fill="#3F3D56"/>
<path d="M126.253 45.268C123.185 45.3533 120.155 44.5765 117.507 43.026C113.629 40.7957 110.633 37.1147 109.688 33.4201L109.594 33.0498L110.614 32.8314C118.633 30.7753 127.966 36.2094 130.198 44.2391L130.296 44.5912L129.945 44.6909C128.742 45.032 127.502 45.2258 126.253 45.268ZM110.502 33.6069C111.5 36.9917 114.291 40.3288 117.874 42.389C121.339 44.444 125.475 45.0517 129.386 44.0807C127.082 36.6073 118.326 31.605 110.79 33.5451L110.502 33.6069Z" fill="#3F3D56"/>
<path d="M117.477 87.3421C116.372 87.4206 115.266 87.1968 114.279 86.6948C113.291 86.1927 112.459 85.4313 111.872 84.4924C111.19 83.3732 110.809 82.0975 110.764 80.7882C110.719 79.479 111.013 78.1802 111.616 77.0171C112.149 76.021 112.949 75.1919 113.925 74.6219C114.901 74.0518 116.016 73.763 117.146 73.7874L140.453 72.9978C141.578 72.8997 142.709 73.1142 143.72 73.6174C144.731 74.1207 145.583 74.8933 146.183 75.8499C146.864 76.9692 147.244 78.2449 147.289 79.554C147.333 80.8631 147.039 82.1615 146.436 83.3242C145.338 85.356 143.374 86.4879 140.907 86.5474L117.599 87.3371C117.559 87.339 117.518 87.3407 117.477 87.3421ZM117.056 74.5248C116.074 74.5184 115.109 74.7795 114.265 75.28C113.42 75.7806 112.728 76.5017 112.263 77.3659C111.72 78.4137 111.455 79.5837 111.496 80.7632C111.536 81.9428 111.88 83.092 112.494 84.1003C113.026 84.9452 113.782 85.6263 114.678 86.0681C115.573 86.5098 116.574 86.6949 117.569 86.6029L140.887 85.8128C141.887 85.838 142.874 85.5862 143.739 85.0853C144.604 84.5845 145.313 83.8541 145.789 82.9751C146.332 81.9276 146.597 80.7578 146.557 79.5785C146.517 78.3991 146.174 77.2498 145.561 76.2415C145.027 75.3967 144.271 74.7155 143.375 74.2727C142.479 73.8299 141.478 73.6428 140.483 73.732L117.163 74.5221C117.127 74.5227 117.092 74.5236 117.056 74.5248Z" fill="#3F3D56"/>
<path d="M228.116 72.9386L220.769 73.1876C220.282 73.2034 219.809 73.0255 219.453 72.6929C219.098 72.3604 218.889 71.9003 218.872 71.4137C218.856 70.9272 219.033 70.454 219.365 70.0981C219.698 69.7422 220.158 69.5327 220.644 69.5156L227.992 69.2667C228.479 69.2502 228.953 69.4278 229.309 69.7604C229.665 70.0931 229.874 70.5535 229.891 71.0404C229.907 71.5274 229.73 72.0009 229.397 72.3569C229.064 72.7129 228.603 72.9221 228.116 72.9386Z" fill="#0067FF"/>
<path d="M228.315 78.8137L220.967 79.0626C220.726 79.0712 220.485 79.0321 220.259 78.9475C220.033 78.863 219.825 78.7346 219.648 78.5699C219.472 78.4052 219.329 78.2073 219.229 77.9875C219.129 77.7677 219.074 77.5303 219.066 77.289C219.057 77.0477 219.097 76.8071 219.182 76.581C219.267 76.355 219.395 76.1479 219.56 75.9716C219.725 75.7952 219.924 75.6532 220.144 75.5535C220.364 75.4539 220.601 75.3985 220.843 75.3907L228.19 75.1418C228.431 75.1332 228.672 75.1724 228.898 75.2569C229.125 75.3415 229.332 75.4698 229.509 75.6345C229.685 75.7992 229.828 75.9972 229.928 76.217C230.028 76.4367 230.084 76.6741 230.092 76.9154C230.1 77.1568 230.06 77.3973 229.976 77.6234C229.891 77.8494 229.762 78.0566 229.597 78.2329C229.432 78.4092 229.234 78.5512 229.014 78.6509C228.794 78.7506 228.556 78.8059 228.315 78.8137Z" fill="#0067FF"/>
<path d="M228.515 84.6886L221.168 84.9376C220.681 84.9541 220.207 84.7765 219.851 84.4438C219.494 84.1112 219.285 83.6507 219.269 83.1638C219.252 82.6769 219.43 82.2033 219.763 81.8474C220.095 81.4914 220.556 81.2821 221.043 81.2656L228.39 81.0167C228.632 81.0085 228.872 81.0479 229.098 81.1326C229.324 81.2173 229.531 81.3457 229.708 81.5104C229.884 81.6751 230.026 81.873 230.126 82.0926C230.226 82.3122 230.281 82.5493 230.29 82.7904C230.298 83.0315 230.258 83.2719 230.174 83.4978C230.089 83.7236 229.96 83.9306 229.796 84.1069C229.631 84.2831 229.433 84.4252 229.213 84.5251C228.993 84.6249 228.756 84.6804 228.515 84.6886Z" fill="#0067FF"/>
<path d="M240.973 72.5031L233.625 72.752C233.384 72.7605 233.143 72.7214 232.917 72.6369C232.691 72.5523 232.483 72.424 232.307 72.2592C232.13 72.0945 231.988 71.8966 231.888 71.6768C231.788 71.457 231.732 71.2197 231.724 70.9783C231.716 70.737 231.755 70.4964 231.84 70.2704C231.925 70.0443 232.054 69.8372 232.219 69.6609C232.384 69.4846 232.582 69.3425 232.802 69.2429C233.022 69.1432 233.26 69.0879 233.501 69.08L240.848 68.8311C241.089 68.823 241.33 68.8624 241.556 68.9471C241.782 69.0318 241.989 69.1602 242.165 69.3249C242.342 69.4896 242.484 69.6874 242.584 69.907C242.684 70.1266 242.739 70.3638 242.747 70.6049C242.756 70.846 242.716 71.0863 242.631 71.3122C242.547 71.5381 242.418 71.7451 242.253 71.9213C242.089 72.0976 241.891 72.2397 241.671 72.3395C241.451 72.4393 241.214 72.4949 240.973 72.5031Z" fill="#0067FF"/>
<path d="M241.173 78.3782L233.826 78.6271C233.339 78.6436 232.865 78.466 232.509 78.1333C232.153 77.8007 231.943 77.3403 231.927 76.8533C231.91 76.3664 232.088 75.8929 232.421 75.5369C232.754 75.1809 233.214 74.9716 233.701 74.9551L241.049 74.7062C241.29 74.6977 241.531 74.7368 241.757 74.8214C241.983 74.9059 242.191 75.0342 242.367 75.199C242.544 75.3637 242.687 75.5616 242.787 75.7814C242.887 76.0012 242.942 76.2386 242.95 76.4799C242.959 76.7212 242.919 76.9618 242.834 77.1878C242.749 77.4139 242.621 77.621 242.456 77.7973C242.29 77.9736 242.092 78.1157 241.872 78.2154C241.652 78.315 241.415 78.3703 241.173 78.3782Z" fill="#0067FF"/>
<path d="M241.371 84.2531L234.024 84.502C233.782 84.5105 233.542 84.4714 233.315 84.3868C233.089 84.3023 232.882 84.174 232.705 84.0092C232.528 83.8445 232.386 83.6466 232.286 83.4268C232.186 83.207 232.13 82.9697 232.122 82.7283C232.114 82.487 232.153 82.2465 232.238 82.0204C232.323 81.7944 232.452 81.5872 232.617 81.4109C232.782 81.2346 232.98 81.0926 233.2 80.9929C233.42 80.8932 233.658 80.8379 233.899 80.8301L241.247 80.5811C241.488 80.573 241.728 80.6124 241.954 80.6971C242.18 80.7818 242.387 80.9102 242.564 81.0749C242.74 81.2396 242.882 81.4374 242.982 81.657C243.082 81.8766 243.138 82.1138 243.146 82.3549C243.154 82.596 243.114 82.8363 243.03 83.0622C242.945 83.2881 242.816 83.4951 242.652 83.6713C242.487 83.8476 242.289 83.9897 242.069 84.0895C241.85 84.1893 241.612 84.2449 241.371 84.2531Z" fill="#0067FF"/>
<path d="M256.806 45.8441L102.953 51.0566L102.978 51.791L256.831 46.5785L256.806 45.8441Z" fill="#3F3D56"/>
<path d="M246.766 107.782L116.719 112.188C113.505 112.293 110.38 111.12 108.031 108.925C105.681 106.73 104.298 103.693 104.185 100.481L102.044 37.3234C101.938 34.1107 103.112 30.9874 105.308 28.6387C107.504 26.29 110.542 24.9078 113.756 24.7953L243.803 20.3893C247.017 20.2841 250.142 21.4575 252.492 23.6522C254.841 25.8468 256.224 28.8835 256.337 32.096L258.478 95.2536C258.584 98.4663 257.41 101.59 255.214 103.938C253.018 106.287 249.98 107.669 246.766 107.782ZM113.781 25.5296C110.761 25.6353 107.908 26.9338 105.845 29.1401C103.782 31.3465 102.679 34.2805 102.778 37.2985L104.92 100.456C105.026 103.474 106.325 106.326 108.532 108.388C110.74 110.45 113.675 111.552 116.694 111.453L246.741 107.047C249.761 106.942 252.615 105.643 254.677 103.437C256.74 101.231 257.843 98.2965 257.744 95.2784L255.602 32.1209C255.496 29.1031 254.197 26.2505 251.99 24.1888C249.783 22.1272 246.847 21.0248 243.828 21.1237L113.781 25.5296Z" fill="#3F3D56"/>
<path d="M60.4389 92.1551C60.4083 91.5091 60.2363 90.8776 59.9351 90.3052C59.6339 89.7328 59.2109 89.2334 58.6957 88.8421C58.1805 88.4509 57.5858 88.1773 56.9534 88.0406C56.321 87.9039 55.6663 87.9075 55.0354 88.051L49.1826 79.8066L43.3027 82.1398L51.7316 93.6664C52.0432 94.7098 52.7269 95.6027 53.653 96.1759C54.5792 96.7491 55.6836 96.9628 56.7569 96.7765C57.8302 96.5902 58.7978 96.0168 59.4764 95.1651C60.155 94.3133 60.4975 93.2423 60.4389 92.1551Z" fill="#A0616A"/>
<path d="M49.0319 91.5433L31.3223 68.5792L37.9579 47.7342C38.4442 42.4934 41.7251 41.03 41.8647 40.9702L42.0777 40.8789L47.8519 56.2702L43.6123 67.5707L54.0183 85.0641L49.0319 91.5433Z" fill="#3F3D56"/>
<path d="M110.535 20.7531C109.893 20.8335 109.276 21.0537 108.729 21.3981C108.181 21.7425 107.715 22.2027 107.365 22.7464C107.015 23.29 106.788 23.9039 106.7 24.5446C106.613 25.1854 106.667 25.8376 106.859 26.4552L99.0879 32.9252L101.87 38.6044L112.715 29.3134C113.732 28.9223 114.57 28.1719 115.07 27.2046C115.57 26.2373 115.698 25.1203 115.429 24.0651C115.16 23.0099 114.514 22.09 113.612 21.4795C112.709 20.8691 111.615 20.6106 110.535 20.7531Z" fill="#A0616A"/>
<path d="M110.807 32.1675L89.2703 51.5915L67.965 46.5904C62.7 46.511 60.9866 43.3545 60.9161 43.22L60.8086 43.0149L75.7144 36.0706L87.3141 39.4219L103.959 27.6992L110.807 32.1675Z" fill="#3F3D56"/>
<path d="M73.5013 170.253H79.2878L82.0403 147.943L73.5 147.944L73.5013 170.253Z" fill="#A0616A"/>
<path d="M90.4492 175.623L72.2632 175.624L72.2629 168.601L84.2199 168.6C85.8719 168.6 87.4563 169.256 88.6245 170.424C89.7928 171.591 90.4491 173.175 90.4492 174.826L90.4492 175.623Z" fill="#2F2E41"/>
<path d="M50.3744 170.253H56.1608L58.9133 147.943L50.373 147.944L50.3744 170.253Z" fill="#A0616A"/>
<path d="M67.3203 175.623L49.1343 175.624L49.134 168.601L61.091 168.6C61.909 168.6 62.719 168.761 63.4747 169.074C64.2305 169.387 64.9172 169.845 65.4956 170.424C66.0741 171.002 66.5329 171.688 66.846 172.443C67.1591 173.199 67.3202 174.008 67.3203 174.826L67.3203 175.623Z" fill="#2F2E41"/>
<path d="M48.3164 88.8223L48.7885 121.846L49.2601 165.249L59.6441 164.305L64.8358 104.391L71.4438 164.305H82.1639L83.2435 103.919L79.4674 90.7092L48.3164 88.8223Z" fill="#2F2E41"/>
<path d="M68.6407 93.2579C57.3425 93.2588 46.9427 88.1476 46.8023 88.0774L46.6857 88.0191L45.7376 65.2759C45.4626 64.4722 40.0488 48.6135 39.1318 43.5729C38.2028 38.466 51.667 33.9841 53.302 33.4599L53.673 29.3517L68.7612 27.7266L70.6736 32.9833L76.0866 35.012C76.7003 35.2422 77.2081 35.6894 77.514 36.2689C77.8198 36.8483 77.9024 37.5198 77.746 38.156L74.7376 50.3848L82.0853 90.8434L80.5034 90.9118C76.7605 92.5263 72.7167 93.3261 68.6407 93.2579Z" fill="#3F3D56"/>
<path d="M61.807 25.1254C67.8068 25.1254 72.6706 20.2638 72.6706 14.2668C72.6706 8.26976 67.8068 3.4082 61.807 3.4082C55.8072 3.4082 50.9434 8.26976 50.9434 14.2668C50.9434 20.2638 55.8072 25.1254 61.807 25.1254Z" fill="#A0616A"/>
<path d="M53.0084 24.7776C55.0788 26.982 58.9237 25.7986 59.1935 22.7872C59.2146 22.5534 59.2131 22.3181 59.1889 22.0846C59.0496 20.7506 58.2786 19.5396 58.4633 18.1311C58.5051 17.7806 58.6357 17.4465 58.8429 17.1606C60.4927 14.9524 64.3655 18.1483 65.9225 16.1493C66.8772 14.9235 65.755 12.9936 66.4876 11.6236C67.4546 9.81545 70.3187 10.7074 72.1148 9.71719C74.1132 8.61542 73.9937 5.55072 72.6782 3.68661C71.0739 1.41325 68.2611 0.200187 65.4833 0.0253629C62.7055 -0.149461 59.9469 0.60109 57.3536 1.61127C54.407 2.75903 51.4851 4.34526 49.6719 6.93495C47.4668 10.0843 47.2546 14.3183 48.3574 18.0009C49.0283 20.241 51.3178 22.9776 53.0084 24.7776Z" fill="#2F2E41"/>
<path d="M359.559 176.214H0.441176C0.324169 176.214 0.211954 176.168 0.129217 176.085C0.0464806 176.002 0 175.89 0 175.773C0 175.656 0.0464806 175.544 0.129217 175.461C0.211954 175.378 0.324169 175.332 0.441176 175.332H359.559C359.676 175.332 359.788 175.378 359.871 175.461C359.954 175.544 360 175.656 360 175.773C360 175.89 359.954 176.002 359.871 176.085C359.788 176.168 359.676 176.214 359.559 176.214Z" fill="#CACACA"/>
<path d="M200.261 236.95L205.473 236.95L207.952 216.855L200.26 216.856L200.261 236.95Z" fill="#FFB8B8"/>
<path d="M198.932 235.248L209.196 235.248C210.931 235.248 212.595 235.937 213.822 237.163C215.048 238.389 215.738 240.052 215.738 241.786V241.999L198.932 241.999L198.932 235.248Z" fill="#2F2E41"/>
<path d="M151.798 236.95L157.01 236.95L159.489 216.855L151.797 216.856L151.798 236.95Z" fill="#FFB8B8"/>
<path d="M150.467 235.248L160.731 235.248C162.466 235.248 164.13 235.937 165.357 237.163C166.583 238.389 167.273 240.052 167.273 241.786V241.999L150.467 241.999L150.467 235.248Z" fill="#2F2E41"/>
<path d="M202.34 134.977C202.34 134.977 206.714 146.846 206.089 151.844C205.464 156.841 210.464 191.824 209.839 194.947C209.214 198.071 210.464 213.688 209.839 216.187C209.214 218.685 211.593 221.67 210.343 224.169C209.094 226.667 207.339 231.804 207.339 231.804L199.215 231.179L197.965 224.308C197.965 224.308 194.215 223.683 194.84 219.935C195.465 216.187 191.715 191.199 191.715 191.199L181.09 156.217L166.091 188.076C166.091 188.076 165.466 210.564 163.591 213.063C161.716 215.562 165.466 222.433 163.591 224.932C161.716 227.431 159.841 231.804 159.841 231.804H150.467V226.806C150.467 226.806 144.842 223.683 150.467 214.313L154.267 158.04L158.017 132.428L202.34 134.977Z" fill="#2F2E41"/>
<path d="M179.04 56.429C185.487 56.429 190.713 51.2052 190.713 44.7614C190.713 38.3175 185.487 33.0938 179.04 33.0938C172.593 33.0938 167.367 38.3175 167.367 44.7614C167.367 51.2052 172.593 56.429 179.04 56.429Z" fill="#FFB8B8"/>
<path d="M188.973 43.9567C188.15 46.0602 187.326 48.1636 186.502 50.2671C185.49 52.8531 184.33 55.6197 181.957 57.0629C179.026 58.8447 175.112 57.9759 172.277 56.0457C169.728 54.3097 167.77 51.8353 166.669 48.955C165.567 46.0747 165.373 42.9263 166.114 39.9328C166.855 36.9393 168.494 34.244 170.812 32.209C173.13 30.174 176.015 28.8967 179.081 28.5486L179.198 30.6607L181.791 28.4883C181.983 28.8172 182.246 29.0984 182.563 29.3107C182.879 29.5231 183.239 29.6611 183.616 29.7144C183.993 29.7677 184.377 29.735 184.74 29.6185C185.102 29.5021 185.434 29.305 185.709 29.0422C185.028 30.4534 185.814 32.1746 186.95 33.2557C188.344 34.5838 192.333 36.1799 192.168 38.554C192.057 40.1384 189.616 42.3148 188.973 43.9567Z" fill="#2F2E41"/>
<path d="M146.909 152.237C146.507 151.637 146.241 150.956 146.13 150.242C146.02 149.528 146.067 148.799 146.269 148.106C146.471 147.412 146.823 146.771 147.299 146.228C147.776 145.685 148.365 145.254 149.027 144.963L148.794 133.676L155.622 131.861L155.727 147.806C156.141 148.949 156.122 150.204 155.672 151.334C155.223 152.464 154.374 153.39 153.287 153.936C152.2 154.482 150.951 154.611 149.775 154.298C148.6 153.984 147.58 153.251 146.909 152.237Z" fill="#FFB8B8"/>
<path d="M170.37 63.6386C170.37 63.6386 179.415 59.1179 187.958 62.1317C196.501 65.1455 201.024 68.6617 201.024 68.6617L195.496 97.7953L203.034 136.975C203.034 136.975 164.339 133.961 160.821 136.975C157.304 139.989 157.304 133.459 157.304 133.459L160.319 96.2883L154.791 72.6801L170.37 63.6386Z" fill="#3F3D56"/>
<path d="M208.549 152.905C207.994 152.442 207.548 151.863 207.242 151.209C206.935 150.555 206.776 149.842 206.775 149.12C206.774 148.398 206.931 147.684 207.236 147.029C207.541 146.374 207.985 145.794 208.539 145.33L205.145 134.562L211.188 130.904L215.768 146.178C216.487 147.159 216.821 148.369 216.706 149.58C216.592 150.79 216.038 151.917 215.148 152.746C214.258 153.575 213.095 154.05 211.879 154.079C210.663 154.108 209.478 153.69 208.549 152.905Z" fill="#FFB8B8"/>
<path d="M197.507 68.6621H201.025C201.025 68.6621 206.553 72.1782 206.553 77.2013C206.553 82.2243 214.593 140.994 214.593 140.994L206.05 142.501L198.512 101.312L192.984 90.2612L197.507 68.6621Z" fill="#3F3D56"/>
<path d="M164.34 72.6816H154.792C154.792 72.6816 151.777 75.6955 150.269 82.7277C148.762 89.76 147.254 117.387 147.254 117.387L148.259 142.502H155.797L156.802 109.852L161.827 88.7554L164.34 72.6816Z" fill="#3F3D56"/>
</g>
<defs>
<clipPath id="clip0_3158_220745">
<rect width="360" height="242" fill="white"/>
</clipPath>
</defs>
</svg>
