<svg width="309" height="296" viewBox="0 0 309 296" fill="none" xmlns="http://www.w3.org/2000/svg">
<g clip-path="url(#clip0_3158_220596)">
<path d="M269.375 89.9426L53.1934 79.625L52.2653 99.2638L268.447 109.581L269.375 89.9426Z" fill="#3F3D56"/>
<path d="M48.5011 169.686L53.6653 60.4023C53.7036 59.5921 54.0624 58.8304 54.6628 58.2849C55.2632 57.7393 56.056 57.4546 56.8668 57.4933L267.808 67.5607C268.619 67.6001 269.38 67.9593 269.927 68.5593C270.473 69.1594 270.758 69.9514 270.721 70.7614L266.146 167.579L265.272 167.537L269.847 70.7198C269.874 70.1413 269.67 69.5758 269.28 69.1473C268.89 68.7187 268.346 68.462 267.767 68.4334L56.8256 58.366C56.2464 58.3384 55.6801 58.5418 55.2513 58.9315C54.8224 59.3212 54.5661 59.8652 54.5388 60.444L49.3746 169.727L48.5011 169.686Z" fill="#3F3D56"/>
<path d="M223.561 153.404C222.979 153.204 222.478 152.82 222.133 152.312C221.787 151.803 221.616 151.196 221.644 150.582L222.51 132.252C222.546 131.5 222.88 130.794 223.437 130.287C223.994 129.781 224.73 129.516 225.483 129.551L243.825 130.427C244.578 130.464 245.286 130.797 245.793 131.354C246.3 131.912 246.565 132.647 246.53 133.399L245.664 151.729C245.628 152.481 245.294 153.187 244.737 153.694C244.179 154.2 243.444 154.465 242.691 154.43L224.348 153.554C224.08 153.542 223.815 153.491 223.561 153.404Z" fill="#0067FF"/>
<path d="M82.0766 70.5087C82.0854 70.3203 82.0839 70.1317 82.0719 69.9435C81.9941 68.6527 81.4418 67.4359 80.521 66.5269C79.6002 65.6179 78.3759 65.0808 77.0834 65.0188C75.7908 64.9569 74.5213 65.3745 73.5186 66.1913C72.5159 67.0081 71.8508 68.1666 71.6512 69.4441C71.6209 69.6301 71.6012 69.8176 71.5922 70.0059C71.5403 71.1395 71.8573 72.2596 72.4957 73.1984C73.1341 74.1373 74.0596 74.8444 75.1335 75.2139C75.6021 75.3761 76.0917 75.4696 76.587 75.4916C77.9762 75.5568 79.3342 75.0689 80.3632 74.1348C81.3923 73.2006 82.0085 71.8966 82.0766 70.5087ZM76.628 74.6187C75.4703 74.5623 74.3819 74.0493 73.6017 73.1924C72.8214 72.3354 72.4129 71.2044 72.4657 70.0473C72.4761 69.8595 72.4971 69.6724 72.5287 69.4869C72.7144 68.4416 73.2748 67.5 74.1051 66.838C74.9353 66.176 75.9786 65.839 77.0399 65.8901C78.1011 65.9411 79.1076 66.3767 79.8712 67.1153C80.6348 67.8539 81.1031 68.845 81.1887 69.9033C81.2081 70.0907 81.2129 70.2792 81.2031 70.4672C81.1468 71.624 80.6334 72.711 79.7756 73.4894C78.9178 74.2678 77.7857 74.6739 76.628 74.6187Z" fill="#0067FF"/>
<path d="M68.6895 69.8669C68.7368 68.868 69.0948 67.9088 69.7136 67.1231C70.3323 66.3373 71.181 65.7641 72.1414 65.4833C71.4296 65.1993 70.6603 65.0894 69.8975 65.1627C69.1348 65.2359 68.4007 65.4903 67.7564 65.9045C67.1121 66.3188 66.5763 66.8809 66.1936 67.5442C65.8109 68.2074 65.5923 68.9525 65.5562 69.7174C65.5201 70.4823 65.6673 71.2449 65.9858 71.9416C66.3042 72.6383 66.7846 73.2489 67.387 73.7227C67.9893 74.1964 68.6961 74.5195 69.4485 74.6651C70.2009 74.8107 70.9771 74.7745 71.7125 74.5596C70.7829 74.1886 69.9921 73.5372 69.4502 72.696C68.9083 71.8549 68.6424 70.8659 68.6895 69.8669Z" fill="#0067FF"/>
<path d="M190.203 134.514C190.224 134.168 190.176 133.821 190.062 133.493C189.949 133.165 189.771 132.862 189.541 132.603C189.31 132.343 189.03 132.132 188.718 131.98C188.405 131.829 188.066 131.741 187.719 131.72L157.629 129.959L154.388 129.77L172.955 136.15L176.196 136.339L187.413 136.997C188.113 137.037 188.799 136.798 189.323 136.333C189.846 135.867 190.162 135.213 190.203 134.514Z" fill="#CCCCCC"/>
<path d="M172.749 122.11C172.789 121.411 172.55 120.724 172.083 120.201C171.617 119.678 170.962 119.361 170.263 119.32L125.112 116.676C124.48 116.641 123.857 116.833 123.355 117.217C122.852 117.6 122.504 118.151 122.372 118.769L133.037 122.434L136.282 122.625L169.957 124.597C170.657 124.636 171.344 124.397 171.868 123.93C172.391 123.464 172.708 122.809 172.749 122.11Z" fill="#CCCCCC"/>
<path d="M274.795 170.218L75.0607 101.588C74.293 101.326 73.4524 101.378 72.7234 101.733C71.9944 102.089 71.4366 102.719 71.1723 103.486L30.5702 221.651C30.3075 222.419 30.3602 223.259 30.7166 223.987C31.0729 224.716 31.7039 225.274 32.4711 225.538L232.205 294.168C232.973 294.43 233.814 294.378 234.543 294.023C235.272 293.667 235.829 293.037 236.094 292.27L276.696 174.105C276.958 173.337 276.906 172.497 276.549 171.769C276.193 171.04 275.562 170.482 274.795 170.218ZM235.267 291.986C235.078 292.534 234.68 292.984 234.159 293.238C233.638 293.492 233.038 293.529 232.489 293.341L32.755 224.712C32.2068 224.523 31.7558 224.125 31.5012 223.604C31.2466 223.084 31.2092 222.483 31.3972 221.936L71.9993 103.77C72.1878 103.222 72.5862 102.772 73.107 102.518C73.6278 102.264 74.2284 102.227 74.7768 102.415L274.511 171.044C275.059 171.233 275.51 171.631 275.765 172.152C276.019 172.672 276.057 173.272 275.869 173.82L235.267 291.986Z" fill="#3F3D56"/>
<path d="M88.9595 124.38C87.978 124.043 87.1185 123.422 86.4896 122.597C85.8608 121.772 85.4908 120.779 85.4265 119.744C85.3622 118.709 85.6065 117.678 86.1284 116.782C86.6504 115.886 87.4265 115.165 88.3588 114.71C89.291 114.255 90.3375 114.087 91.3658 114.226C92.3941 114.366 93.3582 114.807 94.136 115.494C94.9138 116.181 95.4704 117.082 95.7355 118.085C96.0007 119.088 95.9623 120.146 95.6254 121.127C95.1722 122.441 94.2159 123.521 92.9662 124.131C91.7166 124.741 90.2756 124.83 88.9595 124.38ZM92.0827 115.29C91.2648 115.009 90.382 114.977 89.546 115.197C88.71 115.417 87.9582 115.881 87.3858 116.528C86.8134 117.175 86.4461 117.978 86.3303 118.834C86.2144 119.691 86.3553 120.562 86.7351 121.339C87.1149 122.115 87.7165 122.762 88.4639 123.197C89.2113 123.632 90.0709 123.836 90.934 123.783C91.797 123.73 92.6248 123.422 93.3127 122.899C94.0005 122.375 94.5175 121.66 94.7983 120.843C95.1735 119.747 95.0982 118.547 94.5891 117.506C94.08 116.465 93.1786 115.668 92.0827 115.29Z" fill="#0067FF"/>
<path d="M82.9501 116.771C83.2752 115.826 83.8875 115.005 84.7016 114.424C85.5156 113.842 86.491 113.529 87.4918 113.528C86.8878 113.057 86.1799 112.736 85.4269 112.593C84.674 112.45 83.8979 112.489 83.1633 112.707C82.4287 112.924 81.7568 113.314 81.2037 113.844C80.6505 114.374 80.2321 115.028 79.9833 115.752C79.7345 116.476 79.6625 117.249 79.7732 118.007C79.884 118.765 80.1743 119.485 80.6201 120.108C81.0659 120.732 81.6541 121.239 82.3358 121.589C83.0176 121.939 83.7731 122.122 84.5394 122.121C83.7506 121.505 83.1736 120.659 82.8887 119.7C82.6038 118.741 82.6253 117.717 82.9501 116.771Z" fill="#0067FF"/>
<path d="M90.6497 184.911C89.6634 184.571 88.8521 183.854 88.3939 182.917C87.9357 181.98 87.868 180.9 88.2057 179.914L92.0387 168.759C92.3776 167.772 93.0947 166.961 94.0322 166.504C94.9698 166.046 96.0511 165.98 97.0382 166.319C98.0252 166.658 98.8373 167.375 99.2956 168.312C99.754 169.249 99.8211 170.33 99.4822 171.316L95.6492 182.472C95.3093 183.457 94.5921 184.267 93.6548 184.725C92.7176 185.182 91.6368 185.249 90.6497 184.911Z" fill="#0067FF"/>
<path d="M100.575 188.321C99.5892 187.981 98.7779 187.264 98.3197 186.327C97.8615 185.39 97.7938 184.31 98.1314 183.324L101.964 172.169C102.303 171.182 103.02 170.371 103.958 169.914C104.896 169.456 105.977 169.39 106.964 169.729C107.951 170.068 108.763 170.785 109.221 171.722C109.68 172.66 109.747 173.74 109.408 174.726L105.575 185.882C105.235 186.867 104.518 187.678 103.581 188.135C102.643 188.592 101.563 188.659 100.575 188.321Z" fill="#0067FF"/>
<path d="M110.499 191.732C109.513 191.391 108.702 190.674 108.244 189.737C107.785 188.801 107.718 187.721 108.055 186.734L111.888 175.579C112.227 174.593 112.944 173.782 113.882 173.324C114.819 172.867 115.901 172.8 116.888 173.139C117.875 173.478 118.687 174.195 119.145 175.133C119.604 176.07 119.671 177.15 119.332 178.136L115.499 189.292C115.159 190.277 114.442 191.088 113.504 191.545C112.567 192.002 111.486 192.07 110.499 191.732Z" fill="#0067FF"/>
<path d="M125.8 196.989C124.814 196.649 124.003 195.932 123.544 194.995C123.086 194.058 123.018 192.978 123.356 191.992L127.189 180.837C127.528 179.85 128.245 179.039 129.183 178.582C130.12 178.124 131.201 178.058 132.189 178.397C133.176 178.736 133.988 179.453 134.446 180.39C134.904 181.328 134.971 182.408 134.633 183.394L130.8 194.55C130.46 195.535 129.742 196.346 128.805 196.803C127.868 197.26 126.787 197.327 125.8 196.989Z" fill="#0067FF"/>
<path d="M135.726 200.4C134.74 200.059 133.928 199.342 133.47 198.405C133.012 197.469 132.944 196.389 133.282 195.402L137.115 184.247C137.454 183.261 138.171 182.45 139.108 181.992C140.046 181.534 141.127 181.468 142.114 181.807C143.101 182.146 143.913 182.863 144.372 183.801C144.83 184.738 144.897 185.818 144.558 186.804L140.725 197.96C140.385 198.945 139.668 199.756 138.731 200.213C137.794 200.67 136.713 200.738 135.726 200.4Z" fill="#0067FF"/>
<path d="M145.65 203.81C144.663 203.47 143.852 202.752 143.394 201.816C142.936 200.879 142.868 199.799 143.206 198.812L147.039 187.657C147.378 186.671 148.095 185.86 149.032 185.402C149.97 184.945 151.051 184.878 152.038 185.217C153.025 185.556 153.837 186.273 154.296 187.211C154.754 188.148 154.821 189.228 154.482 190.215L150.649 201.37C150.309 202.356 149.592 203.166 148.655 203.623C147.718 204.081 146.637 204.148 145.65 203.81Z" fill="#0067FF"/>
<path d="M160.951 209.067C159.964 208.726 159.153 208.009 158.695 207.072C158.237 206.136 158.169 205.056 158.506 204.069L162.339 192.914C162.678 191.928 163.395 191.117 164.333 190.659C165.271 190.201 166.352 190.135 167.339 190.474C168.326 190.813 169.138 191.53 169.596 192.467C170.055 193.405 170.122 194.485 169.783 195.471L165.95 206.627C165.61 207.612 164.893 208.423 163.956 208.88C163.018 209.337 161.938 209.405 160.951 209.067Z" fill="#0067FF"/>
<path d="M170.874 212.477C169.888 212.137 169.077 211.419 168.619 210.483C168.16 209.546 168.093 208.466 168.43 207.479L172.263 196.324C172.602 195.338 173.319 194.527 174.257 194.069C175.194 193.612 176.276 193.545 177.263 193.884C178.25 194.223 179.062 194.94 179.52 195.878C179.979 196.815 180.046 197.895 179.707 198.882L175.874 210.037C175.534 211.023 174.817 211.833 173.879 212.29C172.942 212.748 171.861 212.815 170.874 212.477Z" fill="#0067FF"/>
<path d="M180.8 215.887C179.814 215.547 179.003 214.83 178.544 213.893C178.086 212.956 178.018 211.876 178.356 210.89L182.189 199.734C182.528 198.748 183.245 197.937 184.183 197.479C185.12 197.022 186.201 196.955 187.189 197.294C188.176 197.634 188.988 198.351 189.446 199.288C189.904 200.225 189.971 201.306 189.633 202.292L185.8 213.447C185.46 214.433 184.742 215.243 183.805 215.7C182.868 216.158 181.787 216.225 180.8 215.887Z" fill="#0067FF"/>
<path d="M196.101 221.145C195.115 220.805 194.303 220.087 193.845 219.151C193.387 218.214 193.319 217.134 193.657 216.147L197.49 204.992C197.829 204.006 198.546 203.195 199.483 202.737C200.421 202.28 201.502 202.213 202.489 202.552C203.476 202.891 204.288 203.608 204.747 204.546C205.205 205.483 205.272 206.563 204.933 207.55L201.1 218.705C200.76 219.69 200.043 220.501 199.106 220.958C198.169 221.416 197.088 221.483 196.101 221.145Z" fill="#0067FF"/>
<path d="M206.025 224.555C205.038 224.215 204.227 223.498 203.769 222.561C203.311 221.624 203.243 220.544 203.581 219.558L207.414 208.402C207.753 207.416 208.47 206.605 209.407 206.147C210.345 205.69 211.426 205.623 212.413 205.962C213.4 206.302 214.212 207.019 214.671 207.956C215.129 208.893 215.196 209.973 214.857 210.96L211.024 222.115C210.684 223.101 209.967 223.911 209.03 224.368C208.093 224.826 207.012 224.893 206.025 224.555Z" fill="#0067FF"/>
<path d="M215.949 227.965C214.962 227.625 214.151 226.908 213.693 225.971C213.235 225.034 213.167 223.954 213.504 222.968L217.338 211.812C217.676 210.826 218.394 210.015 219.331 209.557C220.269 209.1 221.35 209.033 222.337 209.373C223.324 209.712 224.136 210.429 224.594 211.366C225.053 212.303 225.12 213.384 224.781 214.37L220.948 225.525C220.608 226.511 219.891 227.321 218.954 227.778C218.016 228.236 216.936 228.303 215.949 227.965Z" fill="#0067FF"/>
<path d="M101.662 234.967L48.1353 216.575C47.472 216.347 46.9264 215.865 46.6184 215.236C46.3105 214.606 46.2654 213.88 46.493 213.217C46.7207 212.555 47.2026 212.01 47.8326 211.702C48.4626 211.395 49.1891 211.35 49.8523 211.578L103.38 229.97C104.043 230.198 104.588 230.68 104.896 231.31C105.204 231.939 105.249 232.665 105.022 233.328C104.794 233.991 104.312 234.536 103.682 234.843C103.052 235.15 102.326 235.195 101.662 234.967Z" fill="#E6E6E6"/>
<path d="M88.1932 218.328L68.9888 211.729C68.3256 211.502 67.7799 211.02 67.472 210.39C67.164 209.76 67.1189 209.034 67.3466 208.372C67.5743 207.709 68.0561 207.164 68.6861 206.857C69.3161 206.549 70.0426 206.504 70.7058 206.732L89.9102 213.331C90.5734 213.559 91.1191 214.041 91.4271 214.67C91.735 215.3 91.7801 216.026 91.5524 216.689C91.3247 217.351 90.8429 217.896 90.2129 218.204C89.5829 218.511 88.8564 218.556 88.1932 218.328Z" fill="#E6E6E6"/>
<path d="M268.227 195.576L64.3574 125.525L64.0735 126.352L267.943 196.402L268.227 195.576Z" fill="#3F3D56"/>
</g>
<defs>
<clipPath id="clip0_3158_220596">
<rect width="248" height="226" fill="white" transform="translate(74 0.837891) rotate(18.9629)"/>
</clipPath>
</defs>
</svg>
