<svg width="330" height="296" viewBox="0 0 330 296" fill="none" xmlns="http://www.w3.org/2000/svg">
<g clip-path="url(#clip0_3158_223929)">
<path d="M169.004 0.644872L158.266 3.41227L25.9764 37.5072L15.2388 40.2746C10.0269 41.6241 5.56339 44.9847 2.82761 49.6191C0.0918314 54.2536 -0.69284 59.7833 0.645745 64.9952L47.2064 245.442C48.5567 250.65 51.9193 255.111 56.5564 257.846C61.1935 260.58 66.7265 261.364 71.9414 260.026L71.9692 260.019L225.679 220.404L225.706 220.396C230.918 219.047 235.382 215.686 238.117 211.052C240.853 206.417 241.638 200.888 240.299 195.676L193.739 15.2295C192.388 10.0206 189.026 5.55971 184.389 2.82551C179.752 0.0913093 174.219 -0.692921 169.004 0.644872Z" fill="#F2F2F2"/>
<path d="M170.464 6.30296L157.746 9.58075L29.4165 42.655L16.6988 45.9327C12.9872 46.8937 9.80868 49.2869 7.86046 52.5872C5.91224 55.8874 5.35345 59.8253 6.30668 63.5368L52.8674 243.983C53.8289 247.693 56.2235 250.869 59.5257 252.816C62.8279 254.763 66.7681 255.322 70.4818 254.369L70.5095 254.362L224.219 214.747L224.247 214.739C227.958 213.778 231.137 211.385 233.085 208.085C235.033 204.785 235.592 200.847 234.639 197.135L188.078 16.689C187.116 12.9797 184.722 9.80299 181.42 7.85591C178.118 5.90882 174.177 5.35033 170.464 6.30296Z" fill="white"/>
<path d="M160.86 64.7357L83.1026 84.7762C82.2342 85 81.3123 84.8699 80.5398 84.4144C79.7673 83.9589 79.2076 83.2154 78.9836 82.3474C78.7596 81.4795 78.8899 80.5581 79.3456 79.7861C79.8013 79.0141 80.5453 78.4546 81.4137 78.2308L159.172 58.1903C160.04 57.9674 160.961 58.098 161.733 58.5536C162.505 59.0092 163.064 59.7523 163.288 60.6198C163.512 61.4873 163.382 62.408 162.927 63.1798C162.471 63.9516 161.728 64.5112 160.86 64.7357Z" fill="#F2F2F2"/>
<path d="M177.218 72.2999L85.9527 95.8217C85.0843 96.0455 84.1624 95.9154 83.3899 95.4599C82.6174 95.0045 82.0577 94.261 81.8337 93.393C81.6097 92.525 81.74 91.6037 82.1957 90.8317C82.6514 90.0596 83.3954 89.5002 84.2638 89.2764L175.529 65.7545C176.398 65.5307 177.32 65.6608 178.092 66.1163C178.865 66.5718 179.424 67.3153 179.648 68.1833C179.872 69.0512 179.742 69.9726 179.286 70.7446C178.831 71.5166 178.087 72.0761 177.218 72.2999Z" fill="#F2F2F2"/>
<path d="M173.633 114.235L95.8751 134.276C95.4451 134.387 94.9974 134.412 94.5577 134.35C94.118 134.288 93.6948 134.14 93.3123 133.914C92.9298 133.689 92.5955 133.39 92.3285 133.035C92.0615 132.681 91.8669 132.277 91.7561 131.847C91.6452 131.417 91.6201 130.97 91.6822 130.531C91.7443 130.091 91.8924 129.668 92.118 129.286C92.3437 128.904 92.6425 128.57 92.9973 128.303C93.3522 128.036 93.7562 127.841 94.1862 127.731L171.944 107.69C172.374 107.579 172.822 107.554 173.261 107.616C173.701 107.678 174.124 107.826 174.507 108.052C174.889 108.277 175.224 108.576 175.491 108.931C175.758 109.285 175.952 109.689 176.063 110.119C176.174 110.549 176.199 110.996 176.137 111.435C176.075 111.875 175.927 112.298 175.701 112.68C175.475 113.062 175.177 113.396 174.822 113.663C174.467 113.93 174.063 114.125 173.633 114.235Z" fill="#F2F2F2"/>
<path d="M189.99 121.799L98.7247 145.321C98.2947 145.432 97.847 145.457 97.4073 145.395C96.9676 145.333 96.5444 145.184 96.1619 144.959C95.7794 144.733 95.4451 144.435 95.1781 144.08C94.9111 143.726 94.7166 143.322 94.6057 142.892C94.4948 142.462 94.4697 142.015 94.5318 141.575C94.5939 141.136 94.742 140.713 94.9677 140.331C95.1933 139.948 95.4921 139.614 95.8469 139.347C96.2018 139.081 96.6058 138.886 97.0358 138.775L188.301 115.254C189.17 115.03 190.092 115.16 190.864 115.615C191.637 116.071 192.196 116.814 192.42 117.682C192.644 118.55 192.514 119.472 192.058 120.244C191.603 121.016 190.859 121.575 189.99 121.799Z" fill="#F2F2F2"/>
<path d="M186.405 163.734L108.647 183.775C107.779 183.998 106.858 183.868 106.086 183.412C105.314 182.956 104.754 182.213 104.53 181.346C104.307 180.478 104.437 179.557 104.892 178.785C105.347 178.013 106.09 177.454 106.958 177.23L184.716 157.189C185.585 156.965 186.507 157.095 187.279 157.551C188.051 158.006 188.611 158.75 188.835 159.618C189.059 160.486 188.929 161.407 188.473 162.179C188.018 162.951 187.274 163.511 186.405 163.734Z" fill="#F2F2F2"/>
<path d="M202.763 171.299L111.497 194.821C111.067 194.932 110.619 194.957 110.179 194.896C109.739 194.834 109.316 194.686 108.933 194.46C108.55 194.235 108.215 193.936 107.948 193.582C107.681 193.227 107.486 192.823 107.375 192.393C107.264 191.963 107.239 191.515 107.301 191.075C107.364 190.636 107.512 190.213 107.738 189.83C107.964 189.448 108.263 189.114 108.618 188.847C108.974 188.58 109.378 188.386 109.808 188.275L201.074 164.754C201.942 164.53 202.864 164.66 203.637 165.115C204.409 165.571 204.969 166.314 205.193 167.182C205.417 168.05 205.287 168.972 204.831 169.744C204.375 170.516 203.631 171.075 202.763 171.299Z" fill="#F2F2F2"/>
<path d="M69.8283 105.325L42.3105 112.417C41.8941 112.524 41.4523 112.461 41.082 112.243C40.7117 112.025 40.4432 111.669 40.3354 111.253L34.0188 86.7723C33.9119 86.3561 33.9745 85.9146 34.193 85.5445C34.4114 85.1745 34.7678 84.9061 35.184 84.7984L62.7018 77.7062C63.1182 77.5994 63.56 77.662 63.9303 77.8803C64.3005 78.0987 64.569 78.4549 64.6769 78.8708L70.9935 103.351C71.1004 103.767 71.0378 104.209 70.8193 104.579C70.6009 104.949 70.2445 105.217 69.8283 105.325Z" fill="#E6E6E6"/>
<path d="M82.6007 154.824L55.083 161.916C54.6666 162.023 54.2248 161.96 53.8545 161.742C53.4842 161.524 53.2157 161.168 53.1079 160.752L46.7912 136.271C46.6843 135.855 46.747 135.414 46.9654 135.044C47.1839 134.673 47.5403 134.405 47.9565 134.297L75.4742 127.205C75.8906 127.098 76.3324 127.161 76.7027 127.379C77.073 127.598 77.3415 127.954 77.4493 128.37L83.766 152.85C83.8729 153.266 83.8102 153.708 83.5918 154.078C83.3733 154.448 83.0169 154.716 82.6007 154.824Z" fill="#E6E6E6"/>
<path d="M95.3727 204.324L67.855 211.416C67.4385 211.523 66.9967 211.46 66.6265 211.242C66.2562 211.024 65.9877 210.668 65.8799 210.252L59.5632 185.771C59.4563 185.355 59.5189 184.914 59.7374 184.544C59.9559 184.173 60.3123 183.905 60.7284 183.797L88.2462 176.705C88.6626 176.598 89.1044 176.661 89.4747 176.879C89.845 177.098 90.1135 177.454 90.2213 177.87L96.538 202.35C96.6449 202.766 96.5822 203.208 96.3638 203.578C96.1453 203.948 95.7889 204.216 95.3727 204.324Z" fill="#E6E6E6"/>
<path d="M276.247 46.3857H117.451C112.067 46.3918 106.906 48.532 103.099 52.3369C99.2915 56.1417 97.1501 61.3004 97.144 66.6813V253.031C97.1501 258.412 99.2915 263.571 103.099 267.376C106.906 271.18 112.067 273.321 117.451 273.327H276.247C281.631 273.321 286.793 271.18 290.6 267.376C294.407 263.571 296.548 258.412 296.554 253.031V66.6813C296.548 61.3004 294.407 56.1417 290.6 52.3369C286.793 48.532 281.631 46.3918 276.247 46.3857Z" fill="#E6E6E6"/>
<path d="M276.247 52.2285H117.452C113.618 52.2328 109.942 53.7569 107.231 56.4664C104.52 59.1759 102.995 62.8496 102.99 66.6814V253.031C102.995 256.863 104.52 260.537 107.231 263.246C109.942 265.956 113.618 267.48 117.452 267.484H276.247C280.081 267.48 283.757 265.956 286.468 263.246C289.179 260.537 290.704 256.863 290.708 253.031V66.6814C290.704 62.8496 289.179 59.176 286.468 56.4665C283.757 53.757 280.081 52.2329 276.247 52.2285Z" fill="white"/>
<path d="M292.93 296C313.403 296 330 279.412 330 258.951C330 238.49 313.403 221.902 292.93 221.902C272.456 221.902 255.859 238.49 255.859 258.951C255.859 279.412 272.456 296 292.93 296Z" fill="#0067FF"/>
<path d="M310.659 254.119H297.765V241.233C297.765 239.951 297.256 238.722 296.349 237.816C295.442 236.91 294.212 236.4 292.93 236.4C291.647 236.4 290.418 236.91 289.511 237.816C288.604 238.722 288.095 239.951 288.095 241.233V254.119H275.2C273.918 254.119 272.688 254.628 271.781 255.535C270.875 256.441 270.365 257.67 270.365 258.952C270.365 260.233 270.875 261.463 271.781 262.369C272.688 263.275 273.918 263.784 275.2 263.784H288.095V276.671C288.095 277.952 288.604 279.181 289.511 280.088C290.418 280.994 291.647 281.503 292.93 281.503C294.212 281.503 295.442 280.994 296.349 280.088C297.256 279.181 297.765 277.952 297.765 276.671V263.784H310.659C311.941 263.784 313.171 263.275 314.078 262.369C314.985 261.463 315.494 260.233 315.494 258.952C315.494 257.67 314.985 256.441 314.078 255.535C313.171 254.628 311.941 254.119 310.659 254.119Z" fill="white"/>
<path d="M252.348 154.628H172.047C171.602 154.628 171.162 154.541 170.751 154.371C170.341 154.202 169.967 153.953 169.653 153.639C169.339 153.325 169.089 152.952 168.919 152.542C168.749 152.132 168.661 151.692 168.661 151.248C168.661 150.804 168.749 150.364 168.919 149.954C169.089 149.543 169.339 149.171 169.653 148.857C169.967 148.543 170.341 148.294 170.751 148.124C171.162 147.955 171.602 147.868 172.047 147.868H252.348C253.245 147.869 254.104 148.226 254.737 148.859C255.371 149.493 255.726 150.352 255.726 151.248C255.726 152.144 255.371 153.003 254.737 153.636C254.104 154.27 253.245 154.627 252.348 154.628Z" fill="#E6E6E6"/>
<path d="M266.298 166.034H172.047C171.602 166.034 171.162 165.947 170.751 165.778C170.341 165.608 169.967 165.359 169.653 165.045C169.339 164.731 169.089 164.359 168.919 163.948C168.749 163.538 168.661 163.098 168.661 162.654C168.661 162.21 168.749 161.77 168.919 161.36C169.089 160.95 169.339 160.577 169.653 160.263C169.967 159.949 170.341 159.7 170.751 159.531C171.162 159.361 171.602 159.274 172.047 159.274H266.298C267.195 159.274 268.055 159.63 268.689 160.264C269.323 160.898 269.68 161.758 269.68 162.654C269.68 163.551 269.323 164.41 268.689 165.044C268.055 165.678 267.195 166.034 266.298 166.034Z" fill="#E6E6E6"/>
<path d="M252.348 205.746H172.047C171.602 205.746 171.162 205.659 170.751 205.49C170.341 205.32 169.967 205.071 169.653 204.757C169.339 204.443 169.089 204.071 168.919 203.66C168.749 203.25 168.661 202.81 168.661 202.366C168.661 201.922 168.749 201.482 168.919 201.072C169.089 200.662 169.339 200.289 169.653 199.975C169.967 199.661 170.341 199.412 170.751 199.243C171.162 199.073 171.602 198.986 172.047 198.986H252.348C253.245 198.986 254.105 199.342 254.74 199.976C255.374 200.61 255.73 201.47 255.73 202.366C255.73 203.262 255.374 204.122 254.74 204.756C254.105 205.39 253.245 205.746 252.348 205.746Z" fill="#E6E6E6"/>
<path d="M266.298 217.153H172.047C171.602 217.154 171.162 217.067 170.751 216.897C170.341 216.727 169.967 216.478 169.653 216.164C169.339 215.851 169.089 215.478 168.919 215.068C168.749 214.657 168.661 214.217 168.661 213.773C168.661 213.329 168.749 212.889 168.919 212.479C169.089 212.069 169.339 211.696 169.653 211.382C169.967 211.068 170.341 210.819 170.751 210.65C171.162 210.48 171.602 210.393 172.047 210.394H266.298C266.742 210.393 267.183 210.48 267.593 210.65C268.004 210.819 268.377 211.068 268.692 211.382C269.006 211.696 269.256 212.069 269.426 212.479C269.596 212.889 269.684 213.329 269.684 213.773C269.684 214.217 269.596 214.657 269.426 215.068C269.256 215.478 269.006 215.851 268.692 216.164C268.377 216.478 268.004 216.727 267.593 216.897C267.183 217.067 266.742 217.154 266.298 217.153Z" fill="#E6E6E6"/>
<path d="M154.059 171.213H125.641C125.211 171.212 124.799 171.041 124.495 170.738C124.191 170.434 124.02 170.022 124.019 169.592V144.311C124.02 143.881 124.191 143.469 124.495 143.166C124.799 142.862 125.211 142.691 125.641 142.69H154.059C154.489 142.691 154.901 142.862 155.205 143.166C155.509 143.469 155.68 143.881 155.68 144.311V169.592C155.68 170.022 155.509 170.434 155.205 170.738C154.901 171.041 154.489 171.212 154.059 171.213Z" fill="#E6E6E6"/>
<path d="M154.059 222.331H125.641C125.211 222.331 124.799 222.16 124.495 221.856C124.191 221.552 124.02 221.14 124.019 220.71V195.429C124.02 195 124.191 194.588 124.495 194.284C124.799 193.98 125.211 193.809 125.641 193.809H154.059C154.489 193.809 154.901 193.98 155.205 194.284C155.509 194.588 155.68 195 155.68 195.429V220.71C155.68 221.14 155.509 221.552 155.205 221.856C154.901 222.16 154.489 222.331 154.059 222.331Z" fill="#E6E6E6"/>
<path d="M252.437 97.7224H193.234C192.337 97.7224 191.477 97.3663 190.843 96.7325C190.209 96.0987 189.853 95.239 189.853 94.3426C189.853 93.4463 190.209 92.5866 190.843 91.9528C191.477 91.319 192.337 90.9629 193.234 90.9629H252.437C253.334 90.9629 254.195 91.319 254.829 91.9528C255.463 92.5866 255.819 93.4463 255.819 94.3426C255.819 95.239 255.463 96.0987 254.829 96.7325C254.195 97.3663 253.334 97.7224 252.437 97.7224Z" fill="#CCCCCC"/>
<path d="M266.387 109.129H193.234C192.79 109.129 192.35 109.041 191.94 108.871C191.53 108.702 191.157 108.453 190.843 108.139C190.529 107.825 190.28 107.452 190.11 107.042C189.94 106.632 189.853 106.193 189.853 105.749C189.853 105.305 189.94 104.866 190.11 104.456C190.28 104.045 190.529 103.673 190.843 103.359C191.157 103.045 191.53 102.796 191.94 102.626C192.35 102.457 192.79 102.369 193.234 102.369H266.387C267.284 102.369 268.144 102.725 268.778 103.359C269.413 103.993 269.769 104.853 269.769 105.749C269.769 106.645 269.413 107.505 268.778 108.139C268.144 108.773 267.284 109.129 266.387 109.129Z" fill="#CCCCCC"/>
<path d="M180.131 122.953H125.551C125.121 122.952 124.709 122.781 124.405 122.478C124.101 122.174 123.93 121.762 123.93 121.332V78.7602C123.93 78.3306 124.101 77.9186 124.405 77.6148C124.709 77.311 125.121 77.1401 125.551 77.1396H180.131C180.561 77.1401 180.974 77.311 181.278 77.6148C181.582 77.9186 181.753 78.3306 181.753 78.7602V121.332C181.753 121.762 181.582 122.174 181.278 122.478C180.974 122.781 180.561 122.952 180.131 122.953Z" fill="#0067FF"/>
</g>
<defs>
<clipPath id="clip0_3158_223929">
<rect width="330" height="296" fill="white"/>
</clipPath>
</defs>
</svg>
