<svg width="386" height="242" viewBox="0 0 386 242" fill="none" xmlns="http://www.w3.org/2000/svg">
<g clip-path="url(#clip0_3158_222618)">
<path d="M93.0228 241.999C144.398 241.999 186.046 240.06 186.046 237.669C186.046 235.277 144.398 233.338 93.0228 233.338C41.6477 233.338 0 235.277 0 237.669C0 240.06 41.6477 241.999 93.0228 241.999Z" fill="#E6E6E6"/>
<path d="M191.399 0C190.433 0.00103057 189.506 0.385163 188.823 1.0681C188.14 1.75104 187.756 2.67701 187.755 3.64283V138.692C187.756 139.658 188.14 140.584 188.823 141.267C189.506 141.95 190.433 142.335 191.399 142.336H382.356C383.322 142.335 384.248 141.95 384.932 141.267C385.615 140.584 385.999 139.658 386 138.692V3.64283C385.999 2.67701 385.615 1.75104 384.932 1.0681C384.248 0.385162 383.322 0.00102943 382.356 0H191.399Z" fill="#E6E6E6"/>
<path d="M191.854 138.237H381.9V4.09766H191.854V138.237Z" fill="white"/>
<path d="M137.757 171.668C136.59 171.668 135.459 172.069 134.552 172.803C133.646 173.536 133.018 174.559 132.775 175.7H139.88V193.525H132.775C133.037 194.756 133.746 195.846 134.764 196.586C135.783 197.325 137.039 197.661 138.291 197.529C139.543 197.398 140.702 196.807 141.544 195.872C142.386 194.937 142.852 193.723 142.852 192.464V176.761C142.852 176.092 142.72 175.43 142.464 174.812C142.208 174.194 141.833 173.633 141.36 173.16C140.887 172.687 140.325 172.312 139.707 172.056C139.089 171.8 138.426 171.668 137.757 171.668Z" fill="#3F3D56"/>
<path d="M80.4735 140.475C78.0449 140.477 75.7167 141.443 73.9994 143.16C72.2822 144.876 71.3162 147.204 71.3135 149.631V220.021C71.3162 222.448 72.2822 224.776 73.9994 226.492C75.7167 228.209 78.0449 229.175 80.4735 229.178H124.989C127.417 229.175 129.745 228.209 131.463 226.492C133.18 224.776 134.146 222.448 134.149 220.021V149.631C134.146 147.204 133.18 144.876 131.463 143.16C129.745 141.443 127.417 140.477 124.989 140.475H80.4735Z" fill="#3F3D56"/>
<path d="M75.7717 237.452C78.351 237.452 80.4419 235.362 80.4419 232.784C80.4419 230.205 78.351 228.115 75.7717 228.115C73.1925 228.115 71.1016 230.205 71.1016 232.784C71.1016 235.362 73.1925 237.452 75.7717 237.452Z" fill="#3F3D56"/>
<path d="M127.992 237.452C130.572 237.452 132.663 235.362 132.663 232.784C132.663 230.205 130.572 228.115 127.992 228.115C125.413 228.115 123.322 230.205 123.322 232.784C123.322 235.362 125.413 237.452 127.992 237.452Z" fill="#3F3D56"/>
<path d="M81.7153 139.838H79.168V229.39H81.7153V139.838Z" fill="#4D4D4D"/>
<path d="M88.9331 139.838H86.3857V229.39H88.9331V139.838Z" fill="#4D4D4D"/>
<path d="M96.1504 139.838H93.603V229.39H96.1504V139.838Z" fill="#4D4D4D"/>
<path d="M103.368 139.838H100.821V229.39H103.368V139.838Z" fill="#4D4D4D"/>
<path d="M110.585 139.838H108.038V229.39H110.585V139.838Z" fill="#4D4D4D"/>
<path d="M117.803 139.838H115.256V229.39H117.803V139.838Z" fill="#4D4D4D"/>
<path d="M125.021 139.838H122.473V229.39H125.021V139.838Z" fill="#4D4D4D"/>
<path d="M124.336 133.046C126.001 130.216 126.879 126.992 126.878 123.709H81.7685C81.7682 126.992 82.6458 130.216 84.3105 133.046H75.1348C75.1348 137.968 79.2928 141.959 84.422 141.959H95.7878C97.6973 142.524 99.6785 142.81 101.67 142.808H106.977C108.968 142.81 110.949 142.524 112.859 141.959H124.225C129.354 141.959 133.512 137.968 133.512 133.046H124.336Z" fill="#2F2E41"/>
<path d="M91.0147 197.345C91.0985 198.25 90.9061 199.159 90.4627 199.952C90.0193 200.745 89.3458 201.385 88.531 201.788L88.5082 201.801C84.2621 204.222 80.7876 206.123 76.6641 205.773C76.2486 205.736 75.8472 205.604 75.4911 205.386C75.1351 205.169 74.8341 204.872 74.6115 204.52C74.3888 204.167 74.2507 203.768 74.2078 203.353C74.1648 202.938 74.2182 202.519 74.3639 202.128L80.2292 190.978C83.6363 187.01 86.0373 187.006 90.2064 190.342L91.0147 197.345Z" fill="#2F2E41"/>
<path d="M115.296 197.345C115.213 198.25 115.405 199.159 115.849 199.952C116.292 200.745 116.965 201.385 117.78 201.788L117.803 201.801C122.049 204.222 125.524 206.123 129.647 205.773C130.063 205.736 130.464 205.604 130.82 205.386C131.176 205.169 131.477 204.872 131.7 204.52C131.922 204.167 132.061 203.768 132.103 203.353C132.146 202.938 132.093 202.519 131.947 202.128L126.082 190.978C122.675 187.01 120.274 187.006 116.105 190.342L115.296 197.345Z" fill="#2F2E41"/>
<path d="M98.2503 65.9879H81.9295C81.1901 65.9891 80.4701 65.7521 79.876 65.3122C79.2819 64.8722 78.8455 64.2525 78.6313 63.5451C78.1288 61.8708 77.48 60.2462 77.4697 58.7728C77.4296 53.0544 77.7139 49.4146 80.2293 47.1014C88.6104 40.7485 94.6831 41.9171 100.396 48.5868C102.401 52.313 101.887 57.8743 100.802 63.8505C100.695 64.4492 100.38 64.9911 99.9139 65.3818C99.4475 65.7724 98.8587 65.9869 98.2503 65.9879Z" fill="#2F2E41"/>
<path d="M89.7822 73.2044C95.8787 73.2044 100.821 68.2639 100.821 62.1696C100.821 56.0752 95.8787 51.1348 89.7822 51.1348C83.6858 51.1348 78.7437 56.0752 78.7437 62.1696C78.7437 68.2639 83.6858 73.2044 89.7822 73.2044Z" fill="#A0616A"/>
<path d="M98.2732 84.2397L82.989 84.6642L81.7153 68.1119L96.575 67.6875L98.2732 84.2397Z" fill="#A0616A"/>
<path d="M124.171 123.71L113.625 128.59C111.858 132.781 109.422 132.66 106.34 128.379C103.398 133.528 97.0631 130.442 93.9679 128.193C91.9727 127.177 89.7658 126.644 87.5264 126.64C85.287 126.635 83.0779 127.158 81.0785 128.167L69.8276 78.2977C73.2956 75.3172 77.9167 73.4451 82.3522 72.1437L91.0557 82.9663L96.9996 72.3559C101.131 69.0355 106.934 69.0294 113.133 69.8094L116.753 89.1542C114.365 104.414 117.955 112.068 124.171 123.71Z" fill="#0067FF"/>
<path d="M89.3576 189.494L80.4418 190.342L67.2339 131.988C66.9335 130.637 66.9405 129.235 67.2545 127.887C67.5684 126.539 68.1812 125.278 69.0477 124.198C69.9142 123.118 71.0122 122.247 72.2607 121.648C73.5092 121.049 74.8764 120.738 76.2611 120.738C77.5778 120.738 78.8793 121.019 80.0785 121.563C81.2777 122.106 82.3471 122.899 83.215 123.889C84.0829 124.879 84.7294 126.042 85.1112 127.302C85.493 128.562 85.6014 129.888 85.429 131.193L83.8383 143.232L89.3576 189.494Z" fill="#2F2E41"/>
<path d="M116.105 190.342L125.021 189.918L138.229 131.988C138.529 130.637 138.522 129.235 138.208 127.887C137.894 126.539 137.281 125.278 136.415 124.198C135.548 123.118 134.45 122.247 133.202 121.648C131.953 121.049 130.586 120.738 129.202 120.738C127.885 120.738 126.583 121.019 125.384 121.563C124.185 122.106 123.116 122.899 122.248 123.889C121.38 124.879 120.733 126.042 120.351 127.302C119.97 128.562 119.861 129.888 120.034 131.193L121.624 143.232L116.105 190.342Z" fill="#2F2E41"/>
<path d="M145.084 106.597L137.545 126.044C133.423 122.893 130.1 122.463 125.528 124.134C124.263 123.958 123.322 121.18 123.322 119.904C123.322 119.246 123.576 118.614 124.031 118.138C124.485 117.663 125.106 117.38 125.763 117.351L132.663 117.037C133.925 113.733 134.692 110.261 134.939 106.733C138.25 105.794 141.75 105.747 145.084 106.597Z" fill="#A0616A"/>
<path d="M145.824 107.157L147.662 100.301C148.465 97.7941 148.386 95.0877 147.439 92.6313C146.492 90.1748 144.733 88.1158 142.454 86.7958L113.133 69.8086L112.708 88.4829L134.361 97.82C134.959 100.997 135.154 104.237 134.94 107.463C138.317 106.46 142.438 106.247 145.824 107.157Z" fill="#0067FF"/>
<path d="M100.608 56.0141L89.1453 58.1362C88.0859 58.1362 87.037 57.9276 86.0583 57.5223C85.0796 57.1171 84.1903 56.5231 83.4413 55.7743C82.6922 55.0255 82.098 54.1365 81.6926 53.1582C81.2873 52.1798 81.0786 51.1312 81.0786 50.0723H101.033L100.608 56.0141Z" fill="#2F2E41"/>
<path d="M79.5927 60.2598C80.1788 60.2598 80.6541 59.3097 80.6541 58.1377C80.6541 56.9657 80.1788 56.0156 79.5927 56.0156C79.0065 56.0156 78.5312 56.9657 78.5312 58.1377C78.5312 59.3097 79.0065 60.2598 79.5927 60.2598Z" fill="#A0616A"/>
<path d="M114.619 91.9126H114.496V88.5362C114.496 88.2796 114.445 88.0255 114.347 87.7884C114.249 87.5513 114.105 87.3359 113.923 87.1544C113.742 86.9729 113.526 86.829 113.289 86.7308C113.052 86.6326 112.798 86.582 112.541 86.582H105.385C105.128 86.582 104.874 86.6326 104.637 86.7308C104.4 86.829 104.184 86.9729 104.003 87.1544C103.821 87.3359 103.677 87.5513 103.579 87.7884C103.481 88.0255 103.43 88.2796 103.43 88.5362V107.059C103.43 107.316 103.481 107.57 103.579 107.807C103.677 108.044 103.821 108.26 104.003 108.441C104.184 108.623 104.4 108.767 104.637 108.865C104.874 108.963 105.128 109.014 105.385 109.014H112.541C112.798 109.014 113.052 108.963 113.289 108.865C113.526 108.767 113.742 108.623 113.923 108.441C114.105 108.26 114.249 108.044 114.347 107.807C114.445 107.57 114.496 107.316 114.496 107.059V94.316H114.619V91.9126Z" fill="#E6E6E6"/>
<path d="M108.675 93.7879C109.613 93.7879 110.373 93.0278 110.373 92.0902C110.373 91.1527 109.613 90.3926 108.675 90.3926C107.737 90.3926 106.977 91.1527 106.977 92.0902C106.977 93.0278 107.737 93.7879 108.675 93.7879Z" fill="#0067FF"/>
<path d="M107.189 107.581C98.456 114.435 89.7 120.139 83.2015 120.951L82.1401 109.279C88.3815 108.38 96.7262 104.269 105.491 99.5176L109.778 97.2892C110.469 96.9299 111.239 96.7475 112.018 96.7583C112.797 96.7691 113.561 96.9728 114.242 97.3511C114.923 97.7295 115.5 98.2707 115.92 98.9264C116.341 99.5821 116.592 100.332 116.652 101.108C116.737 102.21 116.432 103.306 115.79 104.205C115.149 105.105 114.211 105.75 113.142 106.029L107.189 107.581Z" fill="#A0616A"/>
<path d="M90.6312 121.163L73.2241 121.588C67.367 110.101 65.2413 97.8438 66.4312 84.9018C66.4312 83.5188 66.7666 82.1564 67.4086 80.9313C68.0507 79.7063 68.9803 78.6551 70.1178 77.8679L71.9505 76.5996C79.7863 88.2278 84.6465 99.0261 82.989 108.006L88.0838 107.582C84.7844 112.033 86.3118 116.573 90.6312 121.163Z" fill="#0067FF"/>
<path d="M15.313 171.286C15.313 171.286 16.2123 151.95 34.649 154.197L15.313 171.286Z" fill="#E6E6E6"/>
<path d="M15.0964 236.807C15.0733 236.605 12.8972 216.456 21.7084 205.792C24.9602 201.857 29.3176 199.653 34.6592 199.242L34.718 200.002C29.5911 200.396 25.412 202.507 22.297 206.276C13.692 216.688 15.8309 236.522 15.8532 236.721L15.0964 236.807Z" fill="#E6E6E6"/>
<path d="M15.1185 151.516H14.3516V236.232H15.1185V151.516Z" fill="#E6E6E6"/>
<path d="M14.8423 152.485C18.3192 152.485 21.1378 149.667 21.1378 146.192C21.1378 142.716 18.3192 139.898 14.8423 139.898C11.3654 139.898 8.54688 142.716 8.54688 146.192C8.54688 149.667 11.3654 152.485 14.8423 152.485Z" fill="#0067FF"/>
<path d="M34.6887 205.876C38.1436 205.876 40.9444 203.076 40.9444 199.623C40.9444 196.169 38.1436 193.369 34.6887 193.369C31.2338 193.369 28.4331 196.169 28.4331 199.623C28.4331 203.076 31.2338 205.876 34.6887 205.876Z" fill="#E6E6E6"/>
<path d="M218.405 30.834C216.338 30.834 214.316 31.447 212.597 32.5954C210.877 33.7438 209.537 35.3761 208.746 37.2859C207.955 39.1957 207.748 41.2972 208.151 43.3246C208.555 45.352 209.55 47.2143 211.012 48.6759C212.475 50.1376 214.338 51.133 216.366 51.5363C218.394 51.9396 220.496 51.7326 222.406 50.9415C224.317 50.1505 225.95 48.8109 227.099 47.0921C228.247 45.3734 228.861 43.3527 228.861 41.2855C228.861 39.913 228.59 38.5539 228.065 37.2859C227.539 36.0179 226.769 34.8657 225.798 33.8952C224.827 32.9246 223.675 32.1548 222.406 31.6296C221.138 31.1043 219.778 30.834 218.405 30.834ZM223.222 42.3043C223.114 42.3043 222.755 42.3011 222.65 42.2947L220.59 42.2408C220.579 42.2405 220.569 42.243 220.559 42.248C220.55 42.253 220.542 42.2604 220.536 42.2693L217.444 46.89C217.398 46.9622 217.335 47.0215 217.26 47.0626C217.185 47.1037 217.101 47.1251 217.015 47.1249H216.263C216.085 47.1249 216.025 46.9472 216.088 46.7821L217.679 42.2471C217.682 42.2377 217.684 42.2276 217.683 42.2175C217.682 42.2075 217.678 42.1979 217.672 42.1894C217.667 42.181 217.659 42.1741 217.65 42.1692C217.642 42.1644 217.632 42.1617 217.622 42.1614L213.758 42.0758C213.718 42.0749 213.678 42.0833 213.642 42.1003C213.605 42.1174 213.574 42.1427 213.549 42.1741L212.352 43.6244C212.304 43.6846 212.243 43.7332 212.174 43.7667C212.105 43.8003 212.029 43.8178 211.952 43.818H211.422C211.401 43.8182 211.381 43.8135 211.363 43.8044C211.345 43.7952 211.329 43.7818 211.317 43.7653C211.306 43.7488 211.298 43.7297 211.295 43.7096C211.292 43.6895 211.294 43.669 211.301 43.6498L211.933 41.4696C211.98 41.3482 211.98 41.2133 211.933 41.0919L211.301 38.9117C211.294 38.8926 211.292 38.8721 211.295 38.852C211.298 38.8319 211.306 38.8128 211.317 38.7963C211.329 38.7798 211.345 38.7663 211.363 38.7572C211.381 38.748 211.401 38.7433 211.422 38.7435H211.955C212.032 38.7431 212.108 38.7603 212.177 38.7938C212.247 38.8274 212.307 38.8764 212.355 38.9371L213.53 40.3652C213.554 40.3969 213.586 40.4223 213.622 40.4394C213.659 40.4565 213.699 40.4648 213.739 40.4636L217.625 40.4064C217.635 40.4064 217.645 40.4039 217.654 40.399C217.663 40.3942 217.671 40.3873 217.676 40.3788C217.682 40.3703 217.685 40.3606 217.686 40.3505C217.687 40.3404 217.686 40.3302 217.682 40.3208L216.091 35.7889C216.028 35.6239 216.088 35.4462 216.266 35.4462H217.018C217.104 35.4463 217.188 35.4679 217.263 35.509C217.338 35.55 217.401 35.6091 217.447 35.681L220.536 40.3049C220.541 40.3141 220.549 40.3217 220.559 40.3267C220.568 40.3318 220.579 40.3341 220.59 40.3335L222.65 40.2795C222.752 40.2732 223.114 40.27 223.222 40.27C224.631 40.27 225.517 40.727 225.517 41.2887C225.517 41.8504 224.628 42.3043 223.222 42.3043Z" fill="#3F3D56"/>
<path d="M244.937 40.7949H242.338V41.6611H244.937V40.7949Z" fill="#3F3D56"/>
<path d="M336.459 41.6611H331.375V40.7949H336.459V41.6611ZM326.29 41.6611H321.205V40.7949H326.29L326.29 41.6611ZM316.121 41.6611H311.036V40.7949H316.121V41.6611ZM305.952 41.6611H300.867V40.7949H305.952V41.6611ZM295.783 41.6611H290.698V40.7949H295.783V41.6611ZM285.614 41.6611H280.529V40.7949H285.614V41.6611ZM275.445 41.6611H270.36V40.7949H275.445V41.6611ZM265.275 41.6611H260.191V40.7949H265.275V41.6611ZM255.106 41.6611H250.021V40.7949H255.106V41.6611Z" fill="#3F3D56"/>
<path d="M344.144 40.7949H341.544V41.6611H344.144V40.7949Z" fill="#3F3D56"/>
<path d="M244.937 70.6777H242.338V71.5439H244.937V70.6777Z" fill="#3F3D56"/>
<path d="M336.459 71.5439H331.375V70.6777H336.459V71.5439ZM326.29 71.5439H321.205V70.6777H326.29L326.29 71.5439ZM316.121 71.5439H311.036V70.6777H316.121V71.5439ZM305.952 71.5439H300.867V70.6777H305.952V71.5439ZM295.783 71.5439H290.698V70.6777H295.783V71.5439ZM285.614 71.5439H280.529V70.6777H285.614V71.5439ZM275.445 71.5439H270.36V70.6777H275.445V71.5439ZM265.275 71.5439H260.191V70.6777H265.275V71.5439ZM255.106 71.5439H250.021V70.6777H255.106V71.5439Z" fill="#3F3D56"/>
<path d="M344.144 70.6777H341.544V71.5439H344.144V70.6777Z" fill="#3F3D56"/>
<path d="M244.937 100.559H242.338V101.425H244.937V100.559Z" fill="#3F3D56"/>
<path d="M336.459 101.425H331.375V100.559H336.459V101.425ZM326.29 101.425H321.205V100.559H326.29L326.29 101.425ZM316.121 101.425H311.036V100.559H316.121V101.425ZM305.952 101.425H300.867V100.559H305.952V101.425ZM295.783 101.425H290.698V100.559H295.783V101.425ZM285.614 101.425H280.529V100.559H285.614V101.425ZM275.445 101.425H270.36V100.559H275.445V101.425ZM265.275 101.425H260.191V100.559H265.275V101.425ZM255.106 101.425H250.021V100.559H255.106V101.425Z" fill="#3F3D56"/>
<path d="M344.144 100.559H341.544V101.425H344.144V100.559Z" fill="#3F3D56"/>
<path d="M218.218 61.1484C216.22 61.1484 214.266 61.7408 212.605 62.8507C210.943 63.9605 209.648 65.538 208.883 67.3836C208.119 69.2292 207.919 71.26 208.308 73.2193C208.698 75.1785 209.661 76.9783 211.074 78.3908C212.487 79.8034 214.287 80.7653 216.247 81.1551C218.207 81.5448 220.238 81.3448 222.085 80.5803C223.931 79.8158 225.509 78.5212 226.619 76.8602C227.729 75.1992 228.322 73.2464 228.322 71.2488C228.322 68.57 227.257 66.0009 225.363 64.1068C223.468 62.2126 220.898 61.1484 218.218 61.1484ZM213.493 70.9053L214.052 67.9365C214.196 67.1299 214.57 66.4951 215.273 66.4951H216.328L216.39 66.2528C216.443 66.0414 216.566 65.854 216.738 65.7201C216.911 65.5863 217.122 65.5136 217.341 65.5137H219.089C219.307 65.5136 219.519 65.5858 219.691 65.7191C219.863 65.8523 219.986 66.039 220.04 66.2497L220.102 66.4951H221.163C221.851 66.4951 222.216 67.1177 222.387 67.9335V67.9365L222.949 70.9084C222.953 70.9305 222.952 70.9535 222.944 70.9748C222.936 70.996 222.922 71.0147 222.905 71.0287C222.887 71.0426 222.865 71.0514 222.843 71.054C222.82 71.0566 222.798 71.0529 222.777 71.0433L221.998 70.6845C221.979 70.6769 221.963 70.6647 221.951 70.6492C221.939 70.6336 221.93 70.6151 221.927 70.5955L221.43 67.9703C221.338 67.6329 221.209 67.4796 220.936 67.4796H215.503C215.233 67.4796 215.086 67.6421 215.009 67.9703L214.512 70.5955C214.508 70.6149 214.5 70.6331 214.488 70.6486C214.475 70.6641 214.459 70.6764 214.441 70.6845L213.665 71.0402C213.645 71.0495 213.622 71.053 213.6 71.0503C213.577 71.0476 213.556 71.0388 213.538 71.0249C213.521 71.0109 213.507 70.9924 213.499 70.9713C213.491 70.9503 213.489 70.9274 213.493 70.9053ZM224.314 72.816L222.636 76.9839C222.006 76.9209 221.404 76.6876 220.896 76.3092C220.124 76.6368 219.301 76.8297 218.464 76.8796C218.378 76.8827 218.295 76.8858 218.218 76.8858C218.141 76.8858 218.059 76.8858 217.973 76.8796C217.135 76.8283 216.313 76.6354 215.54 76.3092C215.032 76.6876 214.431 76.9209 213.8 76.9839L212.122 72.816C212.096 72.7505 212.083 72.6809 212.082 72.6105C212.082 72.5047 212.113 72.401 212.17 72.3119C212.227 72.2228 212.308 72.1519 212.404 72.1075L218.114 69.4853C218.146 69.4701 218.181 69.4623 218.217 69.4623C218.252 69.4623 218.287 69.4701 218.319 69.4853L224.032 72.1075C224.128 72.1519 224.209 72.2228 224.267 72.3119C224.324 72.401 224.354 72.5047 224.354 72.6105C224.353 72.6809 224.34 72.7505 224.314 72.816Z" fill="#3F3D56"/>
<path d="M221.859 98.5645H218.82C218.787 98.5646 218.756 98.5777 218.733 98.6009C218.709 98.6241 218.696 98.6556 218.696 98.6885V103.029C218.696 103.061 218.709 103.093 218.733 103.116C218.756 103.139 218.787 103.152 218.82 103.153H221.859C221.991 103.152 222.117 103.1 222.21 103.007C222.303 102.914 222.355 102.788 222.356 102.657V99.0605C222.355 98.929 222.303 98.8031 222.21 98.7102C222.117 98.6172 221.991 98.5648 221.859 98.5645Z" fill="#3F3D56"/>
<path d="M221.177 104.082C220.985 104.098 220.806 104.187 220.678 104.331C220.55 104.475 220.483 104.663 220.49 104.856C220.498 105.049 220.58 105.231 220.719 105.364C220.858 105.498 221.043 105.573 221.236 105.573C221.429 105.573 221.615 105.498 221.754 105.364C221.893 105.231 221.975 105.049 221.982 104.856C221.99 104.663 221.923 104.475 221.795 104.331C221.666 104.187 221.488 104.098 221.295 104.082C221.256 104.079 221.217 104.079 221.177 104.082Z" fill="#3F3D56"/>
<path d="M215.226 104.082C215.034 104.098 214.855 104.187 214.727 104.331C214.599 104.475 214.532 104.663 214.539 104.856C214.547 105.049 214.629 105.231 214.768 105.364C214.907 105.498 215.092 105.573 215.285 105.573C215.478 105.573 215.663 105.498 215.802 105.364C215.942 105.231 216.023 105.049 216.031 104.856C216.039 104.663 215.971 104.475 215.843 104.331C215.715 104.187 215.536 104.098 215.344 104.082C215.305 104.079 215.265 104.079 215.226 104.082Z" fill="#3F3D56"/>
<path d="M217.704 98.5645H214.671C214.538 98.565 214.411 98.618 214.317 98.7121C214.223 98.8062 214.169 98.9336 214.169 99.0667V102.65C214.169 102.783 214.223 102.911 214.317 103.005C214.411 103.099 214.538 103.152 214.671 103.152H217.704C217.737 103.152 217.769 103.139 217.792 103.116C217.815 103.093 217.828 103.061 217.828 103.028V98.6885C217.828 98.6556 217.815 98.6241 217.792 98.6009C217.769 98.5777 217.737 98.5646 217.704 98.5645Z" fill="#3F3D56"/>
<path d="M218.262 91.082C216.242 91.082 214.268 91.6808 212.588 92.8026C210.909 93.9245 209.6 95.519 208.827 97.3845C208.054 99.25 207.851 101.303 208.246 103.283C208.64 105.264 209.612 107.083 211.041 108.511C212.469 109.939 214.289 110.911 216.27 111.305C218.251 111.699 220.304 111.497 222.171 110.724C224.037 109.951 225.632 108.643 226.754 106.964C227.876 105.285 228.475 103.311 228.475 101.291C228.475 98.5838 227.399 95.987 225.484 94.0723C223.569 92.1577 220.971 91.082 218.262 91.082ZM223.224 105.446C223.223 105.774 223.092 106.089 222.86 106.321C222.627 106.554 222.312 106.685 221.984 106.686H214.541C214.212 106.685 213.897 106.554 213.665 106.321C213.433 106.089 213.302 105.774 213.301 105.446V96.8895C213.301 96.6266 213.406 96.3747 213.592 96.1888C213.778 96.003 214.03 95.8982 214.293 95.8974H222.232C222.495 95.8982 222.747 96.003 222.933 96.1888C223.119 96.3747 223.223 96.6266 223.224 96.8895V105.446Z" fill="#3F3D56"/>
<path d="M221.891 96.7647H214.634C214.575 96.7606 214.515 96.7688 214.459 96.7887C214.402 96.8087 214.351 96.84 214.307 96.8807C214.264 96.9214 214.229 96.9706 214.205 97.0253C214.181 97.08 214.169 97.1391 214.169 97.1987C214.169 97.2584 214.181 97.3174 214.205 97.3721C214.229 97.4268 214.264 97.476 214.307 97.5167C214.351 97.5574 214.402 97.5888 214.459 97.6087C214.515 97.6287 214.575 97.6368 214.634 97.6327H221.891C221.95 97.6368 222.01 97.6287 222.066 97.6087C222.122 97.5888 222.174 97.5574 222.218 97.5167C222.261 97.476 222.296 97.4268 222.32 97.3721C222.344 97.3174 222.356 97.2584 222.356 97.1987C222.356 97.1391 222.344 97.08 222.32 97.0253C222.296 96.9706 222.261 96.9214 222.218 96.8807C222.174 96.84 222.122 96.8087 222.066 96.7887C222.01 96.7688 221.95 96.7606 221.891 96.7647Z" fill="#3F3D56"/>
<path d="M359.306 47.7244C358.021 47.7244 356.765 47.3435 355.696 46.6297C354.627 45.9159 353.795 44.9013 353.303 43.7143C352.811 42.5273 352.682 41.2212 352.933 39.9611C353.184 38.701 353.803 37.5435 354.711 36.6351C355.62 35.7266 356.778 35.1079 358.039 34.8572C359.299 34.6066 360.606 34.7352 361.793 35.2269C362.98 35.7186 363.995 36.5512 364.709 37.6194C365.423 38.6877 365.805 39.9436 365.805 41.2284C365.803 42.9507 365.117 44.6019 363.899 45.8197C362.681 47.0375 361.029 47.7225 359.306 47.7244ZM359.306 35.5986C358.192 35.5986 357.104 35.9287 356.177 36.5474C355.251 37.166 354.529 38.0453 354.103 39.074C353.677 40.1027 353.565 41.2347 353.783 42.3268C354 43.4188 354.536 44.422 355.324 45.2093C356.112 45.9967 357.115 46.5329 358.208 46.7501C359.3 46.9674 360.432 46.8559 361.462 46.4298C362.491 46.0036 363.37 45.282 363.989 44.3562C364.608 43.4304 364.938 42.3419 364.938 41.2284C364.936 39.7358 364.343 38.3048 363.287 37.2494C362.231 36.1939 360.799 35.6003 359.306 35.5986Z" fill="#0067FF"/>
<path d="M361.779 39.3702L361.166 38.7578L359.306 40.617L357.447 38.7578L356.834 39.3702L358.694 41.2293L356.834 43.0885L357.447 43.7008L359.306 41.8417L361.166 43.7008L361.779 43.0885L359.919 41.2293L361.779 39.3702Z" fill="#0067FF"/>
<path d="M359.306 77.6053C358.021 77.6053 356.765 77.2243 355.696 76.5105C354.627 75.7967 353.795 74.7822 353.303 73.5952C352.811 72.4082 352.682 71.1021 352.933 69.842C353.184 68.5819 353.803 67.4244 354.711 66.5159C355.62 65.6074 356.778 64.9888 358.039 64.7381C359.299 64.4875 360.606 64.6161 361.793 65.1078C362.98 65.5994 363.995 66.432 364.709 67.5003C365.423 68.5686 365.805 69.8245 365.805 71.1093C365.803 72.8316 365.117 74.4827 363.899 75.7005C362.681 76.9184 361.029 77.6034 359.306 77.6053ZM359.306 65.4794C358.192 65.4794 357.104 65.8096 356.177 66.4282C355.251 67.0468 354.529 67.9261 354.103 68.9548C353.677 69.9836 353.565 71.1155 353.783 72.2076C354 73.2997 354.536 74.3029 355.324 75.0902C356.112 75.8776 357.115 76.4138 358.208 76.631C359.3 76.8482 360.432 76.7367 361.462 76.3106C362.491 75.8845 363.37 75.1629 363.989 74.2371C364.608 73.3113 364.938 72.2228 364.938 71.1093C364.936 69.6167 364.343 68.1857 363.287 67.1302C362.231 66.0748 360.799 65.4811 359.306 65.4794Z" fill="#0067FF"/>
<path d="M361.779 69.251L361.166 68.6387L359.306 70.4978L357.447 68.6387L356.834 69.251L358.694 71.1102L356.834 72.9693L357.447 73.5817L359.306 71.7225L361.166 73.5817L361.779 72.9693L359.919 71.1102L361.779 69.251Z" fill="#0067FF"/>
<path d="M359.306 107.488C358.021 107.488 356.765 107.107 355.696 106.393C354.627 105.68 353.795 104.665 353.303 103.478C352.811 102.291 352.682 100.985 352.933 99.7248C353.184 98.4647 353.803 97.3072 354.711 96.3987C355.62 95.4903 356.778 94.8716 358.039 94.6209C359.299 94.3703 360.606 94.4989 361.793 94.9906C362.98 95.4822 363.995 96.3149 364.709 97.3831C365.423 98.4514 365.805 99.7073 365.805 100.992C365.803 102.714 365.117 104.366 363.899 105.583C362.681 106.801 361.029 107.486 359.306 107.488ZM359.306 95.3622C358.192 95.3622 357.104 95.6924 356.177 96.311C355.251 96.9297 354.529 97.8089 354.103 98.8376C353.677 99.8664 353.565 100.998 353.783 102.09C354 103.183 354.536 104.186 355.324 104.973C356.112 105.76 357.115 106.297 358.208 106.514C359.3 106.731 360.432 106.62 361.462 106.193C362.491 105.767 363.37 105.046 363.989 104.12C364.608 103.194 364.938 102.106 364.938 100.992C364.936 99.4995 364.343 98.0685 363.287 97.0131C362.231 95.9576 360.799 95.3639 359.306 95.3622Z" fill="#0067FF"/>
<path d="M361.779 99.1319L361.166 98.5195L359.306 100.379L357.447 98.5195L356.834 99.1319L358.694 100.991L356.834 102.85L357.447 103.463L359.306 101.603L361.166 103.463L361.779 102.85L359.919 100.991L361.779 99.1319Z" fill="#0067FF"/>
</g>
<defs>
<clipPath id="clip0_3158_222618">
<rect width="386" height="242" fill="white"/>
</clipPath>
</defs>
</svg>
